<mxfile host="Electron" modified="2024-05-30T12:40:43.865Z" agent="Mozilla/5.0 (Windows NT 10.0; Win64; x64) AppleWebKit/537.36 (KHTML, like Gecko) draw.io/23.0.2 Chrome/120.0.6099.109 Electron/28.1.0 Safari/537.36" etag="oO_KbAWMw_GYCpAE61m8" version="23.0.2" type="device">
  <diagram name="Page-1" id="Ha8s6_4_4nTsxysomdbX">
    <mxGraphModel dx="1555" dy="1377" grid="1" gridSize="10" guides="1" tooltips="1" connect="1" arrows="1" fold="1" page="1" pageScale="1" pageWidth="827" pageHeight="1169" math="0" shadow="0">
      <root>
        <mxCell id="0" />
        <mxCell id="1" parent="0" />
        <mxCell id="64xB1zlB2NgBOo_r7WIC-1" value="" style="rounded=0;whiteSpace=wrap;html=1;hachureGap=4;fontFamily=Architects Daughter;fontSource=https%3A%2F%2Ffonts.googleapis.com%2Fcss%3Ffamily%3DArchitects%2BDaughter;fontSize=20;fillColor=none;movable=1;resizable=1;rotatable=1;deletable=1;editable=1;locked=0;connectable=1;strokeColor=none;" vertex="1" parent="1">
          <mxGeometry x="840" y="20" width="1500" height="780" as="geometry" />
        </mxCell>
        <mxCell id="64xB1zlB2NgBOo_r7WIC-24" style="edgeStyle=orthogonalEdgeStyle;rounded=1;hachureGap=4;orthogonalLoop=1;jettySize=auto;html=1;entryX=0.5;entryY=1;entryDx=0;entryDy=0;fontFamily=VK Sans Display;fontSource=https%3A%2F%2Ffonts.googleapis.com%2Fcss%3Ffamily%3DArchitects%2BDaughter;fontSize=11;endArrow=open;strokeColor=#7C8A9A;fontColor=#212121;endFill=0;startArrow=open;startFill=0;strokeWidth=2;arcSize=8;" edge="1" parent="1" source="64xB1zlB2NgBOo_r7WIC-16" target="64xB1zlB2NgBOo_r7WIC-9">
          <mxGeometry relative="1" as="geometry" />
        </mxCell>
        <mxCell id="64xB1zlB2NgBOo_r7WIC-16" value="&lt;font style=&quot;font-size: 24px;&quot;&gt;ЦОД Киберпротект&lt;/font&gt;" style="rounded=1;whiteSpace=wrap;html=1;strokeColor=#7C8A9A;strokeWidth=1;fontColor=#212121;fillColor=none;dashed=1;fontFamily=VK Sans Display;verticalAlign=top;spacing=10;fontStyle=1;arcSize=12;absoluteArcSize=1;" vertex="1" parent="1">
          <mxGeometry x="1345" y="542" width="490" height="217" as="geometry" />
        </mxCell>
        <mxCell id="64xB1zlB2NgBOo_r7WIC-25" style="edgeStyle=orthogonalEdgeStyle;rounded=1;hachureGap=4;orthogonalLoop=1;jettySize=auto;html=1;exitX=0;exitY=0.5;exitDx=0;exitDy=0;entryX=1;entryY=0.5;entryDx=0;entryDy=0;fontFamily=VK Sans Display;fontSource=https%3A%2F%2Ffonts.googleapis.com%2Fcss%3Ffamily%3DArchitects%2BDaughter;fontSize=11;endArrow=open;strokeColor=#7C8A9A;fontColor=#212121;endFill=0;startArrow=open;startFill=0;strokeWidth=2;arcSize=8;" edge="1" parent="1" source="64xB1zlB2NgBOo_r7WIC-15" target="64xB1zlB2NgBOo_r7WIC-9">
          <mxGeometry relative="1" as="geometry" />
        </mxCell>
        <mxCell id="64xB1zlB2NgBOo_r7WIC-15" value="&lt;span style=&quot;font-size: 24px;&quot;&gt;ЦОД клиента&lt;/span&gt;" style="rounded=1;whiteSpace=wrap;html=1;strokeColor=#7C8A9A;strokeWidth=1;fontColor=#212121;fillColor=none;dashed=1;fontFamily=VK Sans Display;verticalAlign=top;spacing=10;fontStyle=1;arcSize=12;absoluteArcSize=1;" vertex="1" parent="1">
          <mxGeometry x="1737.5" y="301" width="557.5" height="217" as="geometry" />
        </mxCell>
        <mxCell id="64xB1zlB2NgBOo_r7WIC-14" value="&lt;font style=&quot;font-size: 24px;&quot;&gt;&amp;nbsp;VK Cloud&lt;/font&gt;" style="rounded=1;whiteSpace=wrap;html=1;strokeColor=#7C8A9A;strokeWidth=1;fontColor=#212121;fillColor=none;dashed=1;fontFamily=VK Sans Display;verticalAlign=top;spacing=10;fontStyle=1;arcSize=12;absoluteArcSize=1;" vertex="1" parent="1">
          <mxGeometry x="880" y="60" width="1415" height="217" as="geometry" />
        </mxCell>
        <mxCell id="64xB1zlB2NgBOo_r7WIC-4" value="" style="shape=image;verticalLabelPosition=bottom;labelBackgroundColor=default;verticalAlign=middle;aspect=fixed;imageAspect=0;image=data:image/svg+xml,PHN2ZyB4bWxucz0iaHR0cDovL3d3dy53My5vcmcvMjAwMC9zdmciIGZpbGw9Im5vbmUiIHZpZXdCb3g9IjAgMCAyOCAyOCIgaGVpZ2h0PSIyOCIgd2lkdGg9IjI4Ij4mI3hhOzxwYXRoIGZpbGw9IiMwMDc3RkYiIGQ9Ik0yLjkxNjY2IDE0QzIuOTE2NjYgOC43NzUyNiAyLjkxNjY2IDYuMTYyODkgNC41Mzk3NyA0LjUzOTc3QzYuMTYyODkgMi45MTY2NiA4Ljc3NTI2IDIuOTE2NjYgMTQgMi45MTY2NkMxOS4yMjQ3IDIuOTE2NjYgMjEuODM3MSAyLjkxNjY2IDIzLjQ2MDIgNC41Mzk3N0MyNS4wODMzIDYuMTYyODkgMjUuMDgzMyA4Ljc3NTI2IDI1LjA4MzMgMTRDMjUuMDgzMyAxNS4xNjI2IDI1LjA2MDIgMTYuNDc3NiAyNS4wMzA4IDE3LjUzOThDMjUuMDE1OSAxOC4wNzU5IDI0LjU3NTYgMTguNSAyNC4wMzkzIDE4LjVDMjMuNDczMyAxOC41IDIzLjAxNDkgMTguMDI5MiAyMy4wMTIxIDE3LjQ2MzFDMjMuMDExMSAxNy4yNTUxIDIzLjAwOTIgMTcuMDM4NiAyMy4wMDczIDE2LjgyM0MyMy4wMDQgMTYuNDM5MiAyMy4wMDA3IDE2LjA1ODMgMjMuMDAyMyAxNS43MzM0QzIzLjAwNDIgMTUuMzUwMyAyMi42OTM2IDE1LjAzOTEgMjIuMzEwNiAxNS4wMzkxSDUuNjg5MzlDNS4zMDYzNCAxNS4wMzkxIDQuOTk1NzcgMTUuMzUwMyA0Ljk5NzY4IDE1LjczMzRDNS4wMDY0MiAxNy40ODQzIDUuMDQxMjIgMTguNzc4IDUuMTc5MTQgMTkuODAzOEM1LjM1MTA1IDIxLjA4MjQgNS42NDgxNCAyMS42Mjk3IDYuMDA5MjMgMjEuOTkwN0M2LjM3MDMxIDIyLjM1MTggNi45MTc1NSAyMi42NDg5IDguMTk2MTggMjIuODIwOEM4LjQ0NzY1IDIyLjg1NDYgOC43MTUyMSAyMi44ODIzIDkuMDAxNjUgMjIuOTA0OEM5LjU1ODQxIDIyLjk0ODYgMTAgMjMuNDAzMSAxMCAyMy45NjE2QzEwIDI0LjU1MTEgOS41MDk0IDI1LjAyNjQgOC45MjE1IDI0Ljk4MjZDNi44NjE1MyAyNC44Mjg4IDUuNTIwMTggMjQuNDQwNiA0LjUzOTc3IDIzLjQ2MDJDMi45MTY2NiAyMS44MzcxIDIuOTE2NjYgMTkuMjI0NyAyLjkxNjY2IDE0Wk0yMy4wMDIzIDEyLjI2NjZDMjMuMDA0MiAxMi42NDk2IDIyLjY5MzYgMTIuOTYwOSAyMi4zMTA2IDEyLjk2MDlINS42ODkzOUM1LjMwNjM0IDEyLjk2MDkgNC45OTU3NyAxMi42NDk2IDQuOTk3NjggMTIuMjY2NkM1LjAwNjQyIDEwLjUxNTYgNS4wNDEyMiA5LjIyMjAxIDUuMTc5MTQgOC4xOTYxOEM1LjM1MTA1IDYuOTE3NTUgNS42NDgxNCA2LjM3MDMxIDYuMDA5MjMgNi4wMDkyM0M2LjM3MDMxIDUuNjQ4MTQgNi45MTc1NSA1LjM1MTA1IDguMTk2MTggNS4xNzkxNEM5LjUzNDU5IDQuOTk5MiAxMS4zMjg5IDQuOTk0NzggMTQgNC45OTQ3OEMxNi42NzExIDQuOTk0NzggMTguNDY1NCA0Ljk5OTIgMTkuODAzOCA1LjE3OTE0QzIxLjA4MjQgNS4zNTEwNSAyMS42Mjk3IDUuNjQ4MTQgMjEuOTkwNyA2LjAwOTIzQzIyLjM1MTggNi4zNzAzMSAyMi42NDg5IDYuOTE3NTUgMjIuODIwOCA4LjE5NjE4QzIyLjk1ODggOS4yMjIwMSAyMi45OTM2IDEwLjUxNTYgMjMuMDAyMyAxMi4yNjY2Wk0xNS4xMjQgMjQuNjU4N0wxNi45MTQyIDIwLjQ0MjlDMTYuOTcyNSAyMC4zMTE2IDE3LjA2NzcgMjAuMTUwNSAxNy4yMzIzIDIwLjA0OTZDMTcuMzgzMiAxOS45NTUxIDE3LjU1MTMgMTkuOTI2MyAxNy43MDMyIDE5LjkyNjNDMTcuODM4OCAxOS45MjYzIDE3Ljk4NCAxOS45NTEgMTguMTE5NCAyMC4wMjM3QzE4LjI1NTkgMjAuMDk2OSAxOC4zNTkyIDIwLjIwNjYgMTguNDI3NCAyMC4zMzgxQzE4LjU2OTkgMjAuNTk1MyAxOC41NTExIDIwLjg3MSAxOC40NDA4IDIxLjExM0wxNS45MjI3IDI2Ljg4OTJDMTUuODU4NCAyNy4wMzYxIDE1Ljc2MjEgMjcuMTcwNSAxNS42MjYyIDI3LjI3MjRMMTUuNjIxMiAyNy4yNzYxQzE1LjQ2OTYgMjcuMzg2NCAxNS4yOTYyIDI3LjQyNTYgMTUuMTMyNSAyNy40MjU2QzE0Ljk2NDYgMjcuNDI1NiAxNC43OTgxIDI3LjM4MDkgMTQuNjUxNyAyNy4yNzgxQzE0LjUwODYgMjcuMTc3NiAxNC40MTA4IDI3LjA0MDEgMTQuMzQ1IDI2Ljg5NTJMMTQuMzQyNCAyNi44ODk2TDExLjg0NDcgMjEuMTc4QzExLjc0MTggMjAuOTI4MiAxMS42OTIxIDIwLjYyOSAxMS44MzIxIDIwLjM0ODhDMTEuOTg2NiAyMC4wMzk5IDEyLjI4MzMgMTkuOTI2MyAxMi41NzAzIDE5LjkyNjNDMTIuNzMzIDE5LjkyNjMgMTIuOTAxNCAxOS45NjI4IDEzLjA1MjMgMjAuMDYwNEMxMy4yMDQ1IDIwLjE1ODYgMTMuMzA3MyAyMC4yOTg0IDEzLjM3MTQgMjAuNDUxMkwxMy4zNzE4IDIwLjQ1MjFMMTUuMTI0IDI0LjY1ODdaTTIxLjI4OTUgMjQuMjEwMVYyNi41NTc0QzIxLjI4OTUgMjYuNzkwNCAyMS4yMDUzIDI3LjAwNTEgMjEuMDM3MSAyNy4xNzMzQzIwLjg2ODkgMjcuMzQxNSAyMC42NTQzIDI3LjQyNTYgMjAuNDIxMiAyNy40MjU2QzIwLjE4ODIgMjcuNDI1NiAxOS45NzM1IDI3LjM0MTUgMTkuODA1MyAyNy4xNzMzQzE5LjYzNzEgMjcuMDA1MSAxOS41NTMgMjYuNzkwNCAxOS41NTMgMjYuNTU3NFYyMC43OTQ2QzE5LjU1MyAyMC41NjQxIDE5LjYzMiAyMC4zNDMgMTkuODEwNCAyMC4xNzM1QzE5Ljk3NzkgMjAuMDA4OCAyMC4xOTA1IDE5LjkyNjMgMjAuNDIxMiAxOS45MjYzQzIwLjc1NzcgMTkuOTI2MyAyMS4wMjI3IDIwLjA5OTcgMjEuMTgyMyAyMC4zNzkxTDIxLjE4ODIgMjAuMzg5NUwyMy4zMzQyIDI0LjY4ODNMMjUuNDI0NCAyMC4zOTE0TDI1LjQzMTQgMjAuMzc5MUMyNS41OTExIDIwLjA5OTcgMjUuODU2MSAxOS45MjYzIDI2LjE5MjUgMTkuOTI2M0MyNi40MjMyIDE5LjkyNjMgMjYuNjM1OSAyMC4wMDg4IDI2LjgwMzMgMjAuMTczNkMyNi45ODE4IDIwLjM0MyAyNy4wNjA4IDIwLjU2NDEgMjcuMDYwOCAyMC43OTQ2VjI2LjU1NzRDMjcuMDYwOCAyNi43OTcxIDI2Ljk2ODggMjcuMDEyOCAyNi43OTUxIDI3LjE3ODFDMjYuNjMxOCAyNy4zMzkgMjYuNDIzNiAyNy40MjU2IDI2LjE5MjUgMjcuNDI1NkMyNS45NTk1IDI3LjQyNTYgMjUuNzQ0OCAyNy4zNDE1IDI1LjU3NjYgMjcuMTczM0MyNS40MDg0IDI3LjAwNTEgMjUuMzI0MyAyNi43OTA0IDI1LjMyNDMgMjYuNTU3NFYyNC4xNTg1TDI0LjA2MDUgMjYuNzM0M0wyNC4wNDYyIDI2Ljc1NjJDMjMuODgxMiAyNy4wMDg1IDIzLjYyNzEgMjcuMTcwMiAyMy4zMDY5IDI3LjE3MDJDMjMuMTQ0MyAyNy4xNzAyIDIyLjk4MDQgMjcuMTMxMiAyMi44MzM0IDI3LjAzNjJDMjIuNjg4MyAyNi45NDI1IDIyLjU4NiAyNi44MTE1IDIyLjUxNjUgMjYuNjY4OEwyMS4yODk1IDI0LjIxMDFaIiBjbGlwLXJ1bGU9ImV2ZW5vZGQiIGZpbGwtcnVsZT0iZXZlbm9kZCIvPiYjeGE7PC9zdmc+;fontSize=24;fontFamily=VK Sans Display;fillColor=#F6F7F9;strokeColor=none;rounded=1;spacing=0;spacingTop=12;spacingBottom=12;arcSize=12;" vertex="1" parent="1">
          <mxGeometry x="1020" y="138.5" width="60" height="60" as="geometry" />
        </mxCell>
        <mxCell id="64xB1zlB2NgBOo_r7WIC-32" style="edgeStyle=orthogonalEdgeStyle;rounded=1;hachureGap=4;orthogonalLoop=1;jettySize=auto;html=1;exitX=0;exitY=0.5;exitDx=0;exitDy=0;entryX=1;entryY=0.5;entryDx=0;entryDy=0;fontFamily=VK Sans Display;fontSource=https%3A%2F%2Ffonts.googleapis.com%2Fcss%3Ffamily%3DArchitects%2BDaughter;fontSize=11;endArrow=open;strokeColor=#7C8A9A;fontColor=#212121;endFill=0;startArrow=open;startFill=0;strokeWidth=2;arcSize=8;" edge="1" parent="1" source="64xB1zlB2NgBOo_r7WIC-6" target="64xB1zlB2NgBOo_r7WIC-19">
          <mxGeometry relative="1" as="geometry" />
        </mxCell>
        <mxCell id="64xB1zlB2NgBOo_r7WIC-6" value="Шлюз S3" style="shape=image;verticalLabelPosition=bottom;labelBackgroundColor=default;verticalAlign=middle;aspect=fixed;imageAspect=0;image=data:image/svg+xml,PHN2ZyB4bWxucz0iaHR0cDovL3d3dy53My5vcmcvMjAwMC9zdmciIGZpbGw9Im5vbmUiIHZpZXdCb3g9IjAgMCAyMCAyNiIgaGVpZ2h0PSIyNiIgd2lkdGg9IjIwIj4mI3hhOzxwYXRoIGZpbGw9IiMwMDc3RkYiIGQ9Ik0wLjk2OTEzOSAzLjUxODM3QzAuMzMzMzQ0IDQuNzY2MTkgMC4zMzMzNDQgNy4zOTk2NyAwLjMzMzM0NCAxMC42NjY2VjE1LjMzMzNDMC4zMzMzNDQgMTguNjAwMyAwLjMzMzM0NCAyMS4yMzM4IDAuOTY5MTM5IDIyLjQ4MTZDMS41Mjg0IDIzLjU3OTIgMi40MjA3OSAyNC40NzE2IDMuNTE4NCAyNS4wMzA4QzMuNjQ0MjIgMjUuMDk1IDMuNzUzNjMgMjUuMTUyNiAzLjg1MiAyNS4yMDQ0TDMuODUyMTEgMjUuMjA0NUwzLjg1MjEzIDI1LjIwNDVDNC4wODI3NSAyNS4zMjYgNC4yNTI3MyAyNS40MTU2IDQuNDMxNDIgMjUuNDgxNkM0LjkzMjMyIDI1LjY2NjYgNS41MDE2IDI1LjY2NjYgNy42NjY2OCAyNS42NjY2SDEyLjMzMzNDMTQuNDk4NCAyNS42NjY2IDE1LjA2NzcgMjUuNjY2NiAxNS41Njg2IDI1LjQ4MTZDMTUuNzQ3MyAyNS40MTU2IDE1LjkxNzMgMjUuMzI2IDE2LjE0NzkgMjUuMjA0NUwxNi4xNDggMjUuMjA0NEMxNi4yNDY0IDI1LjE1MjYgMTYuMzU1OCAyNS4wOTUgMTYuNDgxNiAyNS4wMzA4QzE3LjU3OTIgMjQuNDcxNiAxOC40NzE2IDIzLjU3OTIgMTkuMDMwOSAyMi40ODE2QzE5LjY2NjcgMjEuMjMzOCAxOS42NjY3IDE4LjYwMDMgMTkuNjY2NyAxNS4zMzMzVjEwLjY2NjZDMTkuNjY2NyA3LjM5OTY3IDE5LjY2NjcgNC43NjYxOSAxOS4wMzA5IDMuNTE4MzdDMTguNDcxNiAyLjQyMDc2IDE3LjU3OTIgMS41MjgzNyAxNi40ODE2IDAuOTY5MTA4QzE2LjM1NTggMC45MDQ5OSAxNi4yNDY0IDAuODQ3MzM4IDE2LjE0OCAwLjc5NTVMMTYuMTQ3OSAwLjc5NTQ2M0MxNS45MTczIDAuNjczOTQ4IDE1Ljc0NzMgMC41ODQzODQgMTUuNTY4NiAwLjUxODM2OUMxNS4wNjc3IDAuMzMzMzEzIDE0LjQ5ODQgMC4zMzMzMTMgMTIuMzMzMyAwLjMzMzMxM0g3LjY2NjY4QzUuNTAxNiAwLjMzMzMxMyA0LjkzMjMyIDAuMzMzMzEzIDQuNDMxNDIgMC41MTgzNjlDNC4yNTI3MyAwLjU4NDM4NCA0LjA4Mjc0IDAuNjczOTQ4IDMuODUyMTEgMC43OTU0NjNDMy43NTM3MSAwLjg0NzMxMSAzLjY0NDI3IDAuOTA0OTc1IDMuNTE4NCAwLjk2OTEwOEMyLjQyMDc5IDEuNTI4MzcgMS41Mjg0IDIuNDIwNzYgMC45NjkxMzkgMy41MTgzN1pNMTIuMzMzMyAyLjUyMDgxSDcuNjY2NjhDNi41NzcxMSAyLjUyMDgxIDYuNTczMSAyLjUyMTU0IDYuNDYxOTcgMi41NDE2NEM2LjQwMjgxIDIuNTUyMzQgNi4zMTMyOSAyLjU2ODUzIDYuMDEzNDkgMi41OTMwMkM1LjE3NjA0IDIuNjYxNDQgNC43NzU2NCAyLjc4MzYgNC41MTE1IDIuOTE4MThDMy44MjU1IDMuMjY3NzIgMy4yNjc3NSAzLjgyNTQ2IDIuOTE4MjIgNC41MTE0N0MyLjc4MzYzIDQuNzc1NjEgMi42NjE0NyA1LjE3NjAxIDIuNTkzMDUgNi4wMTM0NkMyLjUyMjU0IDYuODc2NDQgMi41MjA4NCA4Ljk5NzA2IDIuNTIwODQgMTAuNjY2NlYxNS4zMzMzQzIuNTIwODQgMTcuMDAyOSAyLjUyMjU0IDE5LjEyMzUgMi41OTMwNSAxOS45ODY1QzIuNjYxNDcgMjAuODIzOSAyLjc4MzYzIDIxLjIyNDMgMi45MTgyMiAyMS40ODg1QzMuMjY3NzUgMjIuMTc0NSAzLjgyNTUgMjIuNzMyMiA0LjUxMTUgMjMuMDgxOEM0Ljc3NTY0IDIzLjIxNjQgNS4xNzYwNCAyMy4zMzg1IDYuMDEzNDkgMjMuNDA2OUM2LjMxMzI4IDIzLjQzMTQgNi40MDI4IDIzLjQ0NzYgNi40NjE5NyAyMy40NTgzQzYuNTczMSAyMy40Nzg0IDYuNTc3MTEgMjMuNDc5MSA3LjY2NjY4IDIzLjQ3OTFIMTIuMzMzM0MxMy40MjI5IDIzLjQ3OTEgMTMuNDI2OSAyMy40Nzg0IDEzLjUzODEgMjMuNDU4M0MxMy41OTcyIDIzLjQ0NzYgMTMuNjg2NyAyMy40MzE0IDEzLjk4NjUgMjMuNDA2OUMxNC44MjQgMjMuMzM4NSAxNS4yMjQ0IDIzLjIxNjQgMTUuNDg4NSAyMy4wODE4QzE2LjE3NDUgMjIuNzMyMiAxNi43MzIzIDIyLjE3NDUgMTcuMDgxOCAyMS40ODg1QzE3LjIxNjQgMjEuMjI0MyAxNy4zMzg1IDIwLjgyMzkgMTcuNDA3IDE5Ljk4NjVDMTcuNDc3NSAxOS4xMjM1IDE3LjQ3OTIgMTcuMDAyOSAxNy40NzkyIDE1LjMzMzNWMTAuNjY2NkMxNy40NzkyIDguOTk3MDYgMTcuNDc3NSA2Ljg3NjQ0IDE3LjQwNyA2LjAxMzQ2QzE3LjMzODUgNS4xNzYwMSAxNy4yMTY0IDQuNzc1NjEgMTcuMDgxOCA0LjUxMTQ3QzE2LjczMjMgMy44MjU0NiAxNi4xNzQ1IDMuMjY3NzIgMTUuNDg4NSAyLjkxODE4QzE1LjIyNDQgMi43ODM2IDE0LjgyNCAyLjY2MTQ0IDEzLjk4NjUgMi41OTMwMkMxMy42ODY3IDIuNTY4NTMgMTMuNTk3MiAyLjU1MjM0IDEzLjUzODEgMi41NDE2NEMxMy40MjY5IDIuNTIxNTQgMTMuNDIyOSAyLjUyMDgxIDEyLjMzMzMgMi41MjA4MVpNNSA0LjVDNC40NDc3MiA0LjUgNCA0Ljk0NzcyIDQgNS41QzQgNi4wNTIyOCA0LjQ0NzcyIDYuNSA1IDYuNUgxNUMxNS41NTIzIDYuNSAxNiA2LjA1MjI4IDE2IDUuNUMxNiA0Ljk0NzcyIDE1LjU1MjMgNC41IDE1IDQuNUg1Wk00IDE2LjVDNCAxNS45NDc3IDQuNDQ3NzIgMTUuNSA1IDE1LjVIMTVDMTUuNTUyMyAxNS41IDE2IDE1Ljk0NzcgMTYgMTYuNUMxNiAxNy4wNTIzIDE1LjU1MjMgMTcuNSAxNSAxNy41SDVDNC40NDc3MiAxNy41IDQgMTcuMDUyMyA0IDE2LjVaTTUgMTkuNUM0LjQ0NzcyIDE5LjUgNCAxOS45NDc3IDQgMjAuNUM0IDIxLjA1MjMgNC40NDc3MiAyMS41IDUgMjEuNUgxNUMxNS41NTIzIDIxLjUgMTYgMjEuMDUyMyAxNiAyMC41QzE2IDE5Ljk0NzcgMTUuNTUyMyAxOS41IDE1IDE5LjVINVoiIGNsaXAtcnVsZT0iZXZlbm9kZCIgZmlsbC1ydWxlPSJldmVub2RkIi8+JiN4YTs8L3N2Zz4=;fontSize=24;fontFamily=VK Sans Display;fillColor=#F6F7F9;strokeColor=none;rounded=1;spacing=0;spacingTop=12;spacingBottom=12;arcSize=12;" vertex="1" parent="1">
          <mxGeometry x="1810" y="140" width="46.15" height="60" as="geometry" />
        </mxCell>
        <mxCell id="64xB1zlB2NgBOo_r7WIC-23" style="edgeStyle=orthogonalEdgeStyle;rounded=1;hachureGap=4;orthogonalLoop=1;jettySize=auto;html=1;entryX=0;entryY=0.5;entryDx=0;entryDy=0;fontFamily=VK Sans Display;fontSource=https%3A%2F%2Ffonts.googleapis.com%2Fcss%3Ffamily%3DArchitects%2BDaughter;fontSize=11;endArrow=open;strokeColor=#7C8A9A;fontColor=#212121;endFill=0;startArrow=open;startFill=0;strokeWidth=2;arcSize=8;" edge="1" parent="1" source="64xB1zlB2NgBOo_r7WIC-8" target="64xB1zlB2NgBOo_r7WIC-9">
          <mxGeometry relative="1" as="geometry" />
        </mxCell>
        <mxCell id="64xB1zlB2NgBOo_r7WIC-8" value="Администратор клиента" style="shape=image;verticalLabelPosition=bottom;labelBackgroundColor=default;verticalAlign=middle;aspect=fixed;imageAspect=0;image=data:image/svg+xml,PHN2ZyB4bWxucz0iaHR0cDovL3d3dy53My5vcmcvMjAwMC9zdmciIGZpbGw9Im5vbmUiIHZpZXdCb3g9IjAgMCAxNiAxNyIgaGVpZ2h0PSIxNyIgd2lkdGg9IjE2Ij4mI3hhOzxwYXRoIGZpbGw9IiMwMDc3RkYiIGQ9Ik0xMC41IDRDMTAuNSAyLjYxODU5IDkuMzgxNDEgMS41IDggMS41QzYuNjE4NTkgMS41IDUuNSAyLjYxODU5IDUuNSA0QzUuNSA1LjM4MTQxIDYuNjE4NTkgNi41IDggNi41QzkuMzgxNDEgNi41IDEwLjUgNS4zODE0MSAxMC41IDRaTTEyIDRDMTIgNi4yMDk4NCAxMC4yMDk4IDggOCA4QzUuNzkwMTYgOCA0IDYuMjA5ODQgNCA0QzQgMS43OTAxNiA1Ljc5MDE2IDAgOCAwQzEwLjIwOTggMCAxMiAxLjc5MDE2IDEyIDRaTTIgMTQuNUMyIDE1LjIxNTIgMi4zNTc2NSAxNS41IDMgMTUuNUgxM0MxMy42NDIzIDE1LjUgMTQgMTUuMjE1MiAxNCAxNC41QzE0IDEyLjE2NjYgMTEuNDMzNCAxMSA4IDExQzQuNTY2NjEgMTEgMiAxMi4xNjY2IDIgMTQuNVpNMC41IDE0LjVDMC41IDExLjAxNTIgMy44MzMzOSA5LjUgOCA5LjVDMTIuMTY2NiA5LjUgMTUuNSAxMS4wMTUyIDE1LjUgMTQuNUMxNS41IDE2LjEyODMgMTQuNDA1MyAxNyAxMyAxN0gzQzEuNTk0NjcgMTcgMC41IDE2LjEyODMgMC41IDE0LjVaIi8+JiN4YTs8L3N2Zz4=;fontSize=24;fontFamily=VK Sans Display;fillColor=#F6F7F9;strokeColor=none;rounded=1;spacing=0;spacingTop=12;spacingBottom=12;arcSize=12;" vertex="1" parent="1">
          <mxGeometry x="1151.76" y="380" width="56.47" height="60" as="geometry" />
        </mxCell>
        <mxCell id="64xB1zlB2NgBOo_r7WIC-9" value="" style="shape=image;verticalLabelPosition=bottom;labelBackgroundColor=default;verticalAlign=top;aspect=fixed;imageAspect=0;image=data:image/svg+xml,PHN2ZyB4bWxucz0iaHR0cDovL3d3dy53My5vcmcvMjAwMC9zdmciIGZpbGw9Im5vbmUiIHZpZXdCb3g9IjAgMCAyMCAyMCIgaGVpZ2h0PSIyMCIgd2lkdGg9IjIwIj4mI3hhOzxwYXRoIGZpbGw9IiMwMDc3RkYiIGQ9Ik0xMCAxLjVDMTQuNjk0NCAxLjUgMTguNSA1LjMwNTU4IDE4LjUgMTBDMTguNSAxNC42OTQ0IDE0LjY5NDQgMTguNSAxMCAxOC41QzUuMzA1NTggMTguNSAxLjUgMTQuNjk0NCAxLjUgMTBDMS41IDUuMzA1NTggNS4zMDU1OCAxLjUgMTAgMS41Wk03LjAwNzU5IDEzLjUwMDNMMy45MzY3MSAxMy41MDA0QzQuOTA1MjYgMTUuMTc0NSA2LjU0NzIxIDE2LjQxMDIgOC40OTIxNCAxNi44MzcyQzcuODM0NzQgMTUuNzQyNCA3LjMzOTgzIDE0LjYzMDEgNy4wMDc1OSAxMy41MDAzWk0xNi4wNjMzIDEzLjUwMDRMMTIuOTkyNCAxMy41MDAzQzEyLjY2MDIgMTQuNjMwMSAxMi4xNjUzIDE1Ljc0MjQgMTEuNTA4OSAxNi44MzYzQzEzLjQ1MjggMTYuNDEwMiAxNS4wOTQ3IDE1LjE3NDUgMTYuMDYzMyAxMy41MDA0Wk0xMS40MiAxMy41MDAySDguNThDOC45MTA5IDE0LjQ4NDcgOS4zODM4MyAxNS40NTkxIDEwIDE2LjQyNDRDMTAuNjE2MiAxNS40NTkxIDExLjA4OTEgMTQuNDg0NyAxMS40MiAxMy41MDAyWk02LjY2MzcgOC4wMDA0NkwzLjI4OTg5IDcuOTk5OTVDMy4xMDEyOCA4LjYzMzY4IDMgOS4zMDUwMSAzIDEwQzMgMTAuNjk1NCAzLjEwMTM5IDExLjM2NyAzLjI5MDE5IDEyLjAwMUw2LjY2Mzg3IDEyLjAwMDVDNi41NTQ3IDExLjMzOTMgNi41IDEwLjY3MjMgNi41IDEwQzYuNSA5LjMyOCA2LjU1NDY1IDguNjYxNDIgNi42NjM3IDguMDAwNDZaTTExLjgxMjkgNy45OTk5OUg4LjE4NzA2QzguMDYyMjQgOC42NjE4NCA4IDkuMzI4NCA4IDEwQzggMTAuNjcxOSA4LjA2MjMgMTEuMzM4OCA4LjE4NzI1IDEyLjAwMUgxMS44MTI4QzExLjkzNzcgMTEuMzM4OCAxMiAxMC42NzE5IDEyIDEwQzEyIDkuMzI4NCAxMS45Mzc4IDguNjYxODQgMTEuODEyOSA3Ljk5OTk5Wk0xNi43MTAxIDcuOTk5OTVMMTMuMzM2MyA4LjAwMDQ2QzEzLjQ0NTQgOC42NjE0MiAxMy41IDkuMzI4IDEzLjUgMTBDMTMuNSAxMC42NzIzIDEzLjQ0NTMgMTEuMzM5MyAxMy4zMzYxIDEyLjAwMDVMMTYuNzA5OCAxMi4wMDFDMTYuODk4NiAxMS4zNjcgMTcgMTAuNjk1NCAxNyAxMEMxNyA5LjMwNTAxIDE2Ljg5ODcgOC42MzM2OCAxNi43MTAxIDcuOTk5OTVaTTguNDkxMDkgMy4xNjM2OEw4LjM2Mjc4IDMuMTkyNTFDNi40NzQwOSAzLjY0NTA5IDQuODgzMDcgNC44NjMyNiAzLjkzNjE0IDYuNTAwNThMNy4wMDcyOSA2LjUwMDY3QzcuMzM5NTMgNS4zNzA1OCA3LjgzNDU1IDQuMjU3ODggOC40OTEwOSAzLjE2MzY4Wk0xMCAzLjU3NTY0QzkuMzgzNjMgNC41NDEyNiA4LjkxMDU3IDUuNTE1OTUgOC41Nzk2NiA2LjUwMDc4SDExLjQyMDNDMTEuMDg5NCA1LjUxNTk1IDEwLjYxNjQgNC41NDEyNiAxMCAzLjU3NTY0Wk0xMS41MDc5IDMuMTYyODFMMTEuNTU5NyAzLjI0ODk2QzEyLjE5MTEgNC4zMTU2OCAxMi42NjkxIDUuMzk5OTMgMTIuOTkyNyA2LjUwMDY3TDE2LjA2MzkgNi41MDA1OEMxNS4wOTU0IDQuODI2MDEgMTMuNDUzMiAzLjU4OTg4IDExLjUwNzkgMy4xNjI4MVoiLz4mI3hhOzwvc3ZnPg==;fontSize=28;" vertex="1" parent="1">
          <mxGeometry x="1560" y="380" width="60" height="60" as="geometry" />
        </mxCell>
        <mxCell id="64xB1zlB2NgBOo_r7WIC-28" style="edgeStyle=orthogonalEdgeStyle;rounded=1;hachureGap=4;orthogonalLoop=1;jettySize=auto;html=1;entryX=1;entryY=0.5;entryDx=0;entryDy=0;fontFamily=VK Sans Display;fontSource=https%3A%2F%2Ffonts.googleapis.com%2Fcss%3Ffamily%3DArchitects%2BDaughter;fontSize=11;endArrow=open;strokeColor=#7C8A9A;fontColor=#212121;endFill=0;startArrow=open;startFill=0;strokeWidth=2;arcSize=8;" edge="1" parent="1" source="64xB1zlB2NgBOo_r7WIC-11" target="64xB1zlB2NgBOo_r7WIC-6">
          <mxGeometry relative="1" as="geometry" />
        </mxCell>
        <mxCell id="64xB1zlB2NgBOo_r7WIC-11" value="Cloud Storage" style="shape=image;verticalLabelPosition=bottom;labelBackgroundColor=default;verticalAlign=middle;aspect=fixed;imageAspect=0;image=data:image/svg+xml,PHN2ZyB4bWxucz0iaHR0cDovL3d3dy53My5vcmcvMjAwMC9zdmciIGZpbGw9Im5vbmUiIHZpZXdCb3g9IjAgMCAyNCAyNCIgaGVpZ2h0PSIyNCIgd2lkdGg9IjI0Ij4mI3hhOzxwYXRoIGZpbGw9IiMwMDc3RkYiIGQ9Ik0zLjIwMjg0IDIyLjU5OThDMi4yNDgwOCAyMi4wNTQ0IDIuMjQ3NjMgMjIuMDU1MSAyLjI0NzYzIDIyLjA1NTFMMi4yNDY0OSAyMi4wNTcyQzIuOTAwMDUgMjIuNDI3MSAyLjY3NjQ3IDIyLjI5OTEgMy4yMDI4NCAyMi41OTk4QzMuNzMwMTQgMjIuOTAxIDMuNTA5NjkgMjIuNzc1IDQuMTU3NjEgMjMuMTQ1MkwzLjIwMjg0IDIyLjU5OThaIi8+JiN4YTs8cGF0aCBmaWxsPSIjMDA3N0ZGIiBkPSJNNC4xNTg5OCAxLjg4ODM5TDQuMTU2OTcgMS44OTIwMUw0LjE0MDkxIDEuOTIxNjdDNC4xMjU0MSAxLjk1MDcyIDQuMTAwNzIgMS45OTgwOCA0LjA2ODkyIDIuMDYyNThDNC4wMDUyNiAyLjE5MTY5IDMuOTEzNDggMi4zODg3OSAzLjgxMDA1IDIuNjQ0NzFDMy42MDI2NyAzLjE1Nzg0IDMuMzUxNiAzLjg5OTc0IDMuMTg0MyA0Ljc5ODc0QzIuODUwMTMgNi41OTQ0NiAyLjg1NDMzIDguOTgzMTIgNC4xNzMxMiAxMS40NTUyQzUuNzg2NzEgMTQuNDggNS43ODI1MSAxNy40MDQ5IDUuMzgzNTggMTkuNTQ4NkM1LjE4NDMzIDIwLjYxOTMgNC44ODU1OSAyMS41MDM1IDQuNjM0NzggMjIuMTI0MUM0LjUwOTEyIDIyLjQzNTEgNC4zOTQ3MiAyMi42ODE3IDQuMzA5NDYgMjIuODU0N0M0LjI2NjgxIDIyLjk0MTIgNC4yMzEzNiAyMy4wMDk0IDQuMjA1MzQgMjMuMDU4MkM0LjE5MjMzIDIzLjA4MjYgNC4xODE2NiAyMy4xMDIxIDQuMTczNjEgMjMuMTE2N0w0LjE2MzU0IDIzLjEzNDhMNC4xNjAwNSAyMy4xNDA5TDQuMTU4NjkgMjMuMTQzM0M0LjE1ODY5IDIzLjE0MzMgNC4xNTc2MSAyMy4xNDUyIDMuMjAyODQgMjIuNTk5OEwyLjI0NzYzIDIyLjA1NTFMMi4yNDg3MSAyMi4wNTMxTDIuMjY0NzggMjIuMDIzNUMyLjI4MDI4IDIxLjk5NDQgMi4zMDQ5NyAyMS45NDcxIDIuMzM2NzcgMjEuODgyNkMyLjQwMDQyIDIxLjc1MzUgMi40OTIyIDIxLjU1NjQgMi41OTU2MyAyMS4zMDA0QzIuODAzMDEgMjAuNzg3MyAzLjA1NDA5IDIwLjA0NTQgMy4yMjEzOCAxOS4xNDY0QzMuNTU1NTUgMTcuMzUwNyAzLjU1MTM1IDE0Ljk2MiAyLjIzMjU2IDEyLjQ4OTlDMC42MTg5NzMgOS40NjUyMSAwLjYyMzE3NyA2LjU0MDI1IDEuMDIyMSA0LjM5NjU4QzEuMjIxMzUgMy4zMjU4NyAxLjUyMDEgMi40NDE2MiAxLjc3MDkgMS44MjEwM0MxLjg5NjU2IDEuNTEwMSAyLjAxMDk3IDEuMjYzNDQgMi4wOTYyMiAxLjA5MDUxQzIuMTM4ODggMS4wMDM5OSAyLjE3NDMyIDAuOTM1NzU1IDIuMjAwMzQgMC44ODY5NzVDMi4yMTMzNiAwLjg2MjU3OSAyLjIyNDAzIDAuODQzMDMyIDIuMjMyMDcgMC44Mjg0OEwyLjI0MjE0IDAuODEwNDA5TDIuMjQ1NjQgMC44MDQyMTNMMi4yNDY5OSAwLjgwMTgzQzIuMjQ2OTkgMC44MDE4MyAyLjI0ODA3IDAuNzk5OTMgMy4xOTM1MSAxLjM0MDAzTDIuMjQ4MDggMC43OTk5MjdDMi43NTY3MyAxLjA5MDUyIDIuNjI1MjUgMS4wMTUzOSAzLjE1MjU1IDEuMzE2NjNDMy42Nzg5MiAxLjYxNzMzIDQuMTU4OTggMS44ODgzOSA0LjE1ODk4IDEuODg4MzlaIi8+JiN4YTs8cGF0aCBmaWxsPSIjMDA3N0ZGIiBkPSJNMTIuNzY0MiAxLjg4OTM2TDEyLjc2NSAxLjg4Nzk4QzEyLjc2NSAxLjg4Nzk4IDEyLjMyNTcgMS42NDA3MyAxMS43OTkzIDEuMzQwMDNDMTEuMjcyIDEuMDM4NzkgMTEuMjM1IDEuMDE3NjYgMTAuODUzOSAwLjc5OTkyN0wxMC44NTI4IDAuODAxODNMMTAuODUxNCAwLjgwNDIxM0wxMC44NDc5IDAuODEwNDA5TDEwLjgzNzkgMC44Mjg0OEMxMC44Mjk4IDAuODQzMDMyIDEwLjgxOTIgMC44NjI1NzkgMTAuODA2MSAwLjg4Njk3NUMxMC43ODAxIDAuOTM1NzU1IDEwLjc0NDcgMS4wMDM5OSAxMC43MDIgMS4wOTA1MUMxMC42MTY4IDEuMjYzNDQgMTAuNTAyNCAxLjUxMDEgMTAuMzc2NyAxLjgyMTAzQzEwLjEyNTkgMi40NDE2MiA5LjgyNzE1IDMuMzI1ODcgOS42Mjc5IDQuMzk2NThDOS4yMjg5OCA2LjU0MDI1IDkuMjI0NzcgOS40NjUyMSAxMC44Mzg0IDEyLjQ4OTlDMTIuMTU3MSAxNC45NjIgMTIuMTYxNCAxNy4zNTA3IDExLjgyNzIgMTkuMTQ2NEMxMS42NTk5IDIwLjA0NTQgMTEuNDA4OCAyMC43ODczIDExLjIwMTQgMjEuMzAwNEMxMS4wOTggMjEuNTU2NCAxMS4wMDYyIDIxLjc1MzUgMTAuOTQyNiAyMS44ODI2QzEwLjkxMDggMjEuOTQ3MSAxMC44ODYxIDIxLjk5NDQgMTAuODcwNiAyMi4wMjM1TDEwLjg1NDUgMjIuMDUzMUwxMS44MDg2IDIyLjU5OThDMTAuODUzOSAyMi4wNTQ0IDEwLjg1MzQgMjIuMDU1MSAxMC44NTM0IDIyLjA1NTFMMTAuODUyMyAyMi4wNTcyQzExLjYwMjIgMjIuNDgxNSAxMS4yODIzIDIyLjI5OTEgMTEuODA4NiAyMi41OTk4QzEyLjMzNTkgMjIuOTAxIDEyLjE1MyAyMi43OTY1IDEyLjc2MzQgMjMuMTQ1MkwxMS44MDg2IDIyLjU5OThDMTIuNzYzNCAyMy4xNDUyIDEyLjc2MzQgMjMuMTQ1MiAxMi43NjM0IDIzLjE0NTJMMTIuNzY0NSAyMy4xNDMzTDEyLjc2NTggMjMuMTQwOUwxMi43NjkzIDIzLjEzNDhMMTIuNzc5NCAyMy4xMTY3QzEyLjc4NzUgMjMuMTAyMSAxMi43OTgxIDIzLjA4MjYgMTIuODExMSAyMy4wNTgyQzEyLjgzNzIgMjMuMDA5NCAxMi44NzI2IDIyLjk0MTIgMTIuOTE1MyAyMi44NTQ3QzEzLjAwMDUgMjIuNjgxNyAxMy4xMTQ5IDIyLjQzNTEgMTMuMjQwNiAyMi4xMjQxQzEzLjQ5MTQgMjEuNTAzNSAxMy43OTAxIDIwLjYxOTMgMTMuOTg5NCAxOS41NDg2QzE0LjM4ODMgMTcuNDA0OSAxNC4zOTI1IDE0LjQ4IDEyLjc3ODkgMTEuNDU1MkMxMS40NjAxIDguOTgzMTIgMTEuNDU1OSA2LjU5NDQ2IDExLjc5MDEgNC43OTg3NEMxMS45NTc0IDMuODk5NzQgMTIuMjA4NSAzLjE1Nzg0IDEyLjQxNTggMi42NDQ3MUMxMi41MTkzIDIuMzg4NzkgMTIuNjExMSAyLjE5MTY5IDEyLjY3NDcgMi4wNjI1OEMxMi43MDY1IDEuOTk4MDggMTIuNzMxMiAxLjk1MDcyIDEyLjc0NjcgMS45MjE2N0wxMi43NjI4IDEuODkyMDFMMTIuNzY0MiAxLjg4OTM2WiIvPiYjeGE7PHBhdGggZmlsbD0iIzAwNzdGRiIgZD0iTTIxLjc1MjUgMS44ODk4OEwyMS43NTE0IDEuODkyMDFMMjEuNzM1MyAxLjkyMTY3QzIxLjczNTMgMS45MjE2NyAyMS42OTUxIDEuOTk4MDggMjEuNjYzMyAyLjA2MjU4QzIxLjU5OTcgMi4xOTE2OSAyMS41MDc5IDIuMzg4NzkgMjEuNDA0NSAyLjY0NDcxQzIxLjE5NzEgMy4xNTc4NCAyMC45NDYgMy44OTk3NCAyMC43Nzg3IDQuNzk4NzRDMjAuNDQ0NSA2LjU5NDQ2IDIwLjQ0ODcgOC45ODMxMiAyMS43Njc1IDExLjQ1NTJDMjMuMzgxMSAxNC40OCAyMy4zNzY5IDE3LjQwNDkgMjIuOTc4IDE5LjU0ODZDMjIuNzc4NyAyMC42MTkzIDIyLjQ4IDIxLjUwMzUgMjIuMjI5MiAyMi4xMjQxQzIyLjEwMzUgMjIuNDM1MSAyMS45ODkxIDIyLjY4MTcgMjEuOTAzOSAyMi44NTQ3QzIxLjg2MTIgMjIuOTQxMiAyMS44MjU4IDIzLjAwOTQgMjEuNzk5OCAyMy4wNTgyQzIxLjc4NjcgMjMuMDgyNiAyMS43NzYxIDIzLjEwMjEgMjEuNzY4IDIzLjExNjdMMjEuNzU4IDIzLjEzNDhMMjEuNzU0NSAyMy4xNDA5TDIxLjc1MzEgMjMuMTQzM0wyMC44MDEyIDIyLjYwMjFDMjAuODAxMiAyMi42MDIxIDIxLjM4MDcgMjIuOTMzMSAyMS43NTIgMjMuMTQ1MkMyMi4xMjQ5IDIzLjM1ODIgMjEuMzI0NiAyMi45MDEgMjAuNzk3MyAyMi41OTk4QzIwLjI3MDkgMjIuMjk5MSAyMC41NTM5IDIyLjQ2MDggMTkuODQwOSAyMi4wNTcyTDE5Ljg0MTcgMjIuMDU1OEMxOS44NDE3IDIyLjA1NTggMTkuODQyNSAyMi4wNTQ0IDIwLjc5NzMgMjIuNTk5OEwxOS44NDI1IDIyLjA1NDRMMTkuODU5MiAyMi4wMjM1QzE5Ljg3NDcgMjEuOTk0NCAxOS44OTk0IDIxLjk0NzEgMTkuOTMxMiAyMS44ODI2QzE5Ljk5NDggMjEuNzUzNSAyMC4wODY2IDIxLjU1NjQgMjAuMTkgMjEuMzAwNEMyMC4zOTc0IDIwLjc4NzMgMjAuNjQ4NSAyMC4wNDU0IDIwLjgxNTggMTkuMTQ2NEMyMS4xNSAxNy4zNTA3IDIxLjE0NTggMTQuOTYyIDE5LjgyNyAxMi40ODk5QzE4LjIxMzQgOS40NjUyMSAxOC4yMTc2IDYuNTQwMjUgMTguNjE2NSA0LjM5NjU4QzE4LjgxNTggMy4zMjU4NyAxOS4xMTQ1IDIuNDQxNjIgMTkuMzY1MyAxLjgyMTAzQzE5LjQ5MSAxLjUxMDEgMTkuNjA1NCAxLjI2MzQ0IDE5LjY5MDYgMS4wOTA1MUMxOS43MzMzIDEuMDAzOTkgMTkuNzY4NyAwLjkzNTc1NSAxOS43OTQ4IDAuODg2OTc1QzE5LjgwNzggMC44NjI1NzkgMTkuODE4NCAwLjg0MzAzMiAxOS44MjY1IDAuODI4NDhMMTkuODM2NSAwLjgxMDQwOUwxOS44NCAwLjgwNDIxM0wxOS44NDE0IDAuODAxODNMMjEuNzUzNiAxLjg4Nzk4TDIxLjc1MjUgMS44ODk4OFoiLz4mI3hhOzwvc3ZnPg==;fontSize=24;fontFamily=VK Sans Display;fillColor=#F6F7F9;strokeColor=none;rounded=1;spacing=0;spacingTop=12;spacingBottom=12;arcSize=12;" vertex="1" parent="1">
          <mxGeometry x="2038" y="139.5" width="60" height="60" as="geometry" />
        </mxCell>
        <mxCell id="64xB1zlB2NgBOo_r7WIC-12" value="Рабочая станция + агент сервиса" style="shape=image;verticalLabelPosition=bottom;labelBackgroundColor=default;verticalAlign=middle;aspect=fixed;imageAspect=0;image=data:image/svg+xml,PHN2ZyB4bWxucz0iaHR0cDovL3d3dy53My5vcmcvMjAwMC9zdmciIGZpbGw9Im5vbmUiIHZpZXdCb3g9IjAgMCAyMiAyMSIgaGVpZ2h0PSIyMSIgd2lkdGg9IjIyIj4mI3hhOzxwYXRoIGZpbGw9IiMwMDc3RkYiIGQ9Ik02LjQgMTZINy42MzQ5Mkw3LjI1Mzk3IDE5SDRDMy40NDc3MiAxOSAzIDE5LjQ0NzcgMyAyMEMzIDIwLjU1MjMgMy40NDc3MiAyMSA0IDIxSDE4QzE4LjU1MjMgMjEgMTkgMjAuNTUyMyAxOSAyMEMxOSAxOS40NDc3IDE4LjU1MjMgMTkgMTggMTlIMTQuNzQ2TDE0LjM2NTEgMTZIMTUuNkMxNy44NDAyIDE2IDE4Ljk2MDMgMTYgMTkuODE2IDE1LjU2NEMyMC41Njg2IDE1LjE4MDUgMjEuMTgwNSAxNC41Njg2IDIxLjU2NCAxMy44MTZDMjIgMTIuOTYwMyAyMiAxMS44NDAyIDIyIDkuNlY2LjRDMjIgNC4xNTk3OSAyMiAzLjAzOTY5IDIxLjU2NCAyLjE4NDA0QzIxLjE4MDUgMS40MzEzOSAyMC41Njg2IDAuODE5NDY4IDE5LjgxNiAwLjQzNTk3NUMxOC45NjAzIDAgMTcuODQwMiAwIDE1LjYgMEg2LjRDNC4xNTk3OSAwIDMuMDM5NjggMCAyLjE4NDA0IDAuNDM1OTc0QzEuNDMxMzkgMC44MTk0NjcgMC44MTk0NjcgMS40MzEzOSAwLjQzNTk3NCAyLjE4NDA0QzAgMy4wMzk2OSAwIDQuMTU5NzkgMCA2LjRWOS42QzAgMTEuODQwMiAwIDEyLjk2MDMgMC40MzU5NzQgMTMuODE2QzAuODE5NDY3IDE0LjU2ODYgMS40MzEzOSAxNS4xODA1IDIuMTg0MDQgMTUuNTY0QzMuMDM5NjggMTYgNC4xNTk3OSAxNiA2LjQgMTZaTTIwIDkuNlY2LjRDMjAgNS4yNDY4OSAxOS45OTg0IDQuNTAyMzUgMTkuOTUyMSAzLjkzNTY3QzE5LjkwNzggMy4zOTIzNSAxOS44MzI0IDMuMTkwOTEgMTkuNzgyIDMuMDkyMDJDMTkuNTkwMyAyLjcxNTcgMTkuMjg0MyAyLjQwOTczIDE4LjkwOCAyLjIxNzk5QzE4LjgwOTEgMi4xNjc2IDE4LjYwNzcgMi4wOTIyNSAxOC4wNjQzIDIuMDQ3ODZDMTcuNDk3NyAyLjAwMTU2IDE2Ljc1MzEgMiAxNS42IDJMNi40IDJDNS4yNDY4OSAyIDQuNTAyMzUgMi4wMDE1NiAzLjkzNTY3IDIuMDQ3ODVDMy4zOTIzNSAyLjA5MjI1IDMuMTkwOTEgMi4xNjc2IDMuMDkyMDIgMi4yMTc5OUMyLjcxNTY5IDIuNDA5NzMgMi40MDk3MyAyLjcxNTY5IDIuMjE3OTkgMy4wOTIwMkMyLjE2NzYgMy4xOTA5MSAyLjA5MjI1IDMuMzkyMzUgMi4wNDc4NiAzLjkzNTY3QzIuMDAxNTUgNC41MDIzNSAyIDUuMjQ2ODkgMiA2LjRMMiA5LjZDMiAxMC43NTMxIDIuMDAxNTUgMTEuNDk3NyAyLjA0Nzg1IDEyLjA2NDNDMi4wOTIyNSAxMi42MDc3IDIuMTY3NiAxMi44MDkxIDIuMjE3OTkgMTIuOTA4QzIuNDA5NzMgMTMuMjg0MyAyLjcxNTY5IDEzLjU5MDMgMy4wOTIwMiAxMy43ODJDMy4xOTA5MSAxMy44MzI0IDMuMzkyMzQgMTMuOTA3OCAzLjkzNTY3IDEzLjk1MjFDNC41MDIzNSAxMy45OTg0IDUuMjQ2ODkgMTQgNi40IDE0TDE1LjYgMTRDMTYuNzUzMSAxNCAxNy40OTc3IDEzLjk5ODQgMTguMDY0MyAxMy45NTIxQzE4LjYwNzcgMTMuOTA3OCAxOC44MDkxIDEzLjgzMjQgMTguOTA4IDEzLjc4MkMxOS4yODQzIDEzLjU5MDMgMTkuNTkwMyAxMy4yODQzIDE5Ljc4MiAxMi45MDhDMTkuODMyNCAxMi44MDkxIDE5LjkwNzggMTIuNjA3NyAxOS45NTIxIDEyLjA2NDNDMTkuOTk4NCAxMS40OTc3IDIwIDEwLjc1MzEgMjAgOS42Wk0xMi43MyAxOUwxMi4zNDkgMTZIOS42NTA5OEw5LjI3MDAzIDE5SDEyLjczWiIgY2xpcC1ydWxlPSJldmVub2RkIiBmaWxsLXJ1bGU9ImV2ZW5vZGQiLz4mI3hhOzwvc3ZnPg==;fontSize=24;fontFamily=VK Sans Display;fillColor=#F6F7F9;strokeColor=none;rounded=1;spacing=0;spacingTop=12;spacingBottom=12;arcSize=12;" vertex="1" parent="1">
          <mxGeometry x="2038" y="380" width="62.9" height="60" as="geometry" />
        </mxCell>
        <mxCell id="64xB1zlB2NgBOo_r7WIC-27" style="edgeStyle=orthogonalEdgeStyle;rounded=1;hachureGap=4;orthogonalLoop=1;jettySize=auto;html=1;entryX=0.5;entryY=0;entryDx=0;entryDy=0;fontFamily=VK Sans Display;fontSource=https%3A%2F%2Ffonts.googleapis.com%2Fcss%3Ffamily%3DArchitects%2BDaughter;fontSize=11;endArrow=open;strokeColor=#7C8A9A;fontColor=#212121;endFill=0;startArrow=open;startFill=0;strokeWidth=2;arcSize=8;" edge="1" parent="1" source="64xB1zlB2NgBOo_r7WIC-13" target="64xB1zlB2NgBOo_r7WIC-9">
          <mxGeometry relative="1" as="geometry" />
        </mxCell>
        <mxCell id="64xB1zlB2NgBOo_r7WIC-33" style="edgeStyle=orthogonalEdgeStyle;rounded=1;hachureGap=4;orthogonalLoop=1;jettySize=auto;html=1;fontFamily=VK Sans Display;fontSource=https%3A%2F%2Ffonts.googleapis.com%2Fcss%3Ffamily%3DArchitects%2BDaughter;fontSize=11;endArrow=none;strokeColor=#7C8A9A;fontColor=#212121;endFill=0;startArrow=open;startFill=0;strokeWidth=2;arcSize=8;" edge="1" parent="1" source="64xB1zlB2NgBOo_r7WIC-13">
          <mxGeometry relative="1" as="geometry">
            <mxPoint x="1590" y="170" as="targetPoint" />
          </mxGeometry>
        </mxCell>
        <mxCell id="64xB1zlB2NgBOo_r7WIC-13" value="" style="shape=image;verticalLabelPosition=bottom;labelBackgroundColor=default;verticalAlign=top;aspect=fixed;imageAspect=0;image=data:image/svg+xml,PHN2ZyB4bWxucz0iaHR0cDovL3d3dy53My5vcmcvMjAwMC9zdmciIGZpbGw9Im5vbmUiIHZpZXdCb3g9IjAgMCAyOSAyNCIgaGVpZ2h0PSIyNCIgd2lkdGg9IjI5Ij4mI3hhOzxwYXRoIGZpbGw9IiMwMDc3RkYiIGQ9Ik0zLjYzNTggMy41MTgzN0MzIDQuNzY2MTkgMyA2LjM5OTY3IDMgOS42NjY2NVYxMC43ODY5SDEuMDVDMC40NzAxMDEgMTAuNzg2OSAwIDExLjI1NyAwIDExLjgzNjlDMCAxMi40MTY4IDAuNDcwMSAxMi44ODY5IDEuMDUgMTIuODg2OUgzVjE0LjMzMzNDMyAxNy42MDAzIDMgMTkuMjMzOCAzLjYzNTggMjAuNDgxNkM0LjE5NTA2IDIxLjU3OTIgNS4wODc0NCAyMi40NzE2IDYuMTg1MDYgMjMuMDMwOEM3LjQzMjg3IDIzLjY2NjYgOC4wNjYzNiAyMy42NjY2IDExLjMzMzMgMjMuNjY2NkMxNC42MDAzIDIzLjY2NjYgMTUuMjMzOCAyMy42NjY2IDE2LjQ4MTYgMjMuMDMwOEMxNy41NzkyIDIyLjQ3MTYgMTguNDcxNiAyMS41NzkyIDE5LjAzMDkgMjAuNDgxNkMxOS42NjY3IDE5LjIzMzggMTkuNjY2NyAxNy42MDAzIDE5LjY2NjcgMTQuMzMzM1YxMi44ODY5SDI0Ljc1ODNMMjIuODU1NCAxNS4wMzhDMjIuNDk3NyAxNS40ODcyIDIyLjU2NDQgMTYuMTM5OCAyMy4wMDU1IDE2LjUwNzRDMjMuNDU2OSAxNi44ODM1IDI0LjEyODUgMTYuODE5IDI0LjUgMTYuMzYzOUwyNy44NTI2IDEyLjQ2NjlDMjguMTUyMSAxMi4wOTk5IDI4LjE1MzEgMTEuNTczMSAyNy44NTQ5IDExLjIwNUwyNC41IDcuMzE2MzlDMjQuMTI4MSA2Ljg1NzQzIDIzLjQ1MjcgNi43OTEzMyAyMi45OTg5IDcuMTY5NDhDMjIuNTU5NiA3LjUzNTYgMjIuNDkwMiA4LjE4NDM0IDIyLjg0MjIgOC42MzUwOUwyNC43NTgzIDEwLjc4NjlIMTkuNjY2N1Y5LjY2NjY1QzE5LjY2NjcgNi4zOTk2NyAxOS42NjY3IDQuNzY2MTkgMTkuMDMwOSAzLjUxODM3QzE4LjQ3MTYgMi40MjA3NiAxNy41NzkyIDEuNTI4MzcgMTYuNDgxNiAwLjk2OTEwOEMxNS4yMzM4IDAuMzMzMzEzIDE0LjYwMDMgMC4zMzMzMTMgMTEuMzMzMyAwLjMzMzMxM0M4LjA2NjM2IDAuMzMzMzEzIDcuNDMyODcgMC4zMzMzMTMgNi4xODUwNiAwLjk2OTEwOEM1LjA4NzQ0IDEuNTI4MzcgNC4xOTUwNiAyLjQyMDc2IDMuNjM1OCAzLjUxODM3Wk01LjE4NzUgMTIuODg2OVYxNC4zMzMzQzUuMTg3NSAxNi4wMDI5IDUuMTg5MiAxNy4xMjM1IDUuMjU5NzEgMTcuOTg2NUM1LjMyODEzIDE4LjgyMzkgNS40NTAyOSAxOS4yMjQzIDUuNTg0ODcgMTkuNDg4NUM1LjkzNDQxIDIwLjE3NDUgNi40OTIxNSAyMC43MzIyIDcuMTc4MTYgMjEuMDgxOEM3LjQ0MjMgMjEuMjE2NCA3Ljg0MjcgMjEuMzM4NSA4LjY4MDE0IDIxLjQwNjlDOS41NDMxMiAyMS40Nzc0IDkuNjYzNzUgMjEuNDc5MSAxMS4zMzMzIDIxLjQ3OTFDMTMuMDAyOSAyMS40NzkxIDEzLjEyMzUgMjEuNDc3NCAxMy45ODY1IDIxLjQwNjlDMTQuODI0IDIxLjMzODUgMTUuMjI0NCAyMS4yMTY0IDE1LjQ4ODUgMjEuMDgxOEMxNi4xNzQ1IDIwLjczMjIgMTYuNzMyMyAyMC4xNzQ1IDE3LjA4MTggMTkuNDg4NUMxNy4yMTY0IDE5LjIyNDMgMTcuMzM4NSAxOC44MjM5IDE3LjQwNyAxNy45ODY1QzE3LjQ3NzUgMTcuMTIzNSAxNy40NzkyIDE2LjAwMjkgMTcuNDc5MiAxNC4zMzMzVjkuNjY2NjVDMTcuNDc5MiA3Ljk5NzA2IDE3LjQ3NzUgNi44NzY0NCAxNy40MDcgNi4wMTM0NkMxNy4zMzg1IDUuMTc2MDEgMTcuMjE2NCA0Ljc3NTYxIDE3LjA4MTggNC41MTE0N0MxNi43MzIzIDMuODI1NDYgMTYuMTc0NSAzLjI2NzcyIDE1LjQ4ODUgMi45MTgxOEMxNS4yMjQ0IDIuNzgzNiAxNC44MjQgMi42NjE0NCAxMy45ODY1IDIuNTkzMDJDMTMuMTIzNSAyLjUyMjUxIDEzLjAwMjkgMi41MjA4MSAxMS4zMzMzIDIuNTIwODFDOS42NjM3NSAyLjUyMDgxIDkuNTQzMTIgMi41MjI1MSA4LjY4MDE0IDIuNTkzMDJDNy44NDI3IDIuNjYxNDQgNy40NDIzIDIuNzgzNiA3LjE3ODE2IDIuOTE4MThDNi40OTIxNSAzLjI2NzcyIDUuOTM0NDEgMy44MjU0NiA1LjU4NDg3IDQuNTExNDdDNS40NTAyOSA0Ljc3NTYxIDUuMzI4MTMgNS4xNzYwMSA1LjI1OTcxIDYuMDEzNDZDNS4xODkyIDYuODc2NDQgNS4xODc1IDcuOTk3MDYgNS4xODc1IDkuNjY2NjVWMTAuNzg2OUwxNCAxMC43ODY5VjEyLjg4NjlINS4xODc1WiIgY2xpcC1ydWxlPSJldmVub2RkIiBmaWxsLXJ1bGU9ImV2ZW5vZGQiLz4mI3hhOzwvc3ZnPg==;" vertex="1" parent="1">
          <mxGeometry x="1553.76" y="250" width="72.5" height="60" as="geometry" />
        </mxCell>
        <mxCell id="64xB1zlB2NgBOo_r7WIC-17" value="ВМ + агент сервиса" style="shape=image;verticalLabelPosition=bottom;labelBackgroundColor=default;verticalAlign=middle;aspect=fixed;imageAspect=0;image=data:image/svg+xml,PHN2ZyB4bWxucz0iaHR0cDovL3d3dy53My5vcmcvMjAwMC9zdmciIGZpbGw9Im5vbmUiIHZpZXdCb3g9IjAgMCAyOCAyOCIgaGVpZ2h0PSIyOCIgd2lkdGg9IjI4Ij4mI3hhOzxwYXRoIGZpbGw9IiMwMDc3RkYiIGQ9Ik0yLjkxNjY2IDE0QzIuOTE2NjYgOC43NzUyNiAyLjkxNjY2IDYuMTYyODkgNC41Mzk3NyA0LjUzOTc3QzYuMTYyODkgMi45MTY2NiA4Ljc3NTI2IDIuOTE2NjYgMTQgMi45MTY2NkMxOS4yMjQ3IDIuOTE2NjYgMjEuODM3MSAyLjkxNjY2IDIzLjQ2MDIgNC41Mzk3N0MyNS4wODMzIDYuMTYyODkgMjUuMDgzMyA4Ljc3NTI2IDI1LjA4MzMgMTRDMjUuMDgzMyAxNS4xNjI2IDI1LjA2MDIgMTYuNDc3NiAyNS4wMzA4IDE3LjUzOThDMjUuMDE1OSAxOC4wNzU5IDI0LjU3NTYgMTguNSAyNC4wMzkzIDE4LjVDMjMuNDczMyAxOC41IDIzLjAxNDkgMTguMDI5MiAyMy4wMTIxIDE3LjQ2MzFDMjMuMDExMSAxNy4yNTUxIDIzLjAwOTIgMTcuMDM4NiAyMy4wMDczIDE2LjgyM0MyMy4wMDQgMTYuNDM5MiAyMy4wMDA3IDE2LjA1ODMgMjMuMDAyMyAxNS43MzM0QzIzLjAwNDIgMTUuMzUwMyAyMi42OTM2IDE1LjAzOTEgMjIuMzEwNiAxNS4wMzkxSDUuNjg5MzlDNS4zMDYzNCAxNS4wMzkxIDQuOTk1NzcgMTUuMzUwMyA0Ljk5NzY4IDE1LjczMzRDNS4wMDY0MiAxNy40ODQzIDUuMDQxMjIgMTguNzc4IDUuMTc5MTQgMTkuODAzOEM1LjM1MTA1IDIxLjA4MjQgNS42NDgxNCAyMS42Mjk3IDYuMDA5MjMgMjEuOTkwN0M2LjM3MDMxIDIyLjM1MTggNi45MTc1NSAyMi42NDg5IDguMTk2MTggMjIuODIwOEM4LjQ0NzY1IDIyLjg1NDYgOC43MTUyMSAyMi44ODIzIDkuMDAxNjUgMjIuOTA0OEM5LjU1ODQxIDIyLjk0ODYgMTAgMjMuNDAzMSAxMCAyMy45NjE2QzEwIDI0LjU1MTEgOS41MDk0IDI1LjAyNjQgOC45MjE1IDI0Ljk4MjZDNi44NjE1MyAyNC44Mjg4IDUuNTIwMTggMjQuNDQwNiA0LjUzOTc3IDIzLjQ2MDJDMi45MTY2NiAyMS44MzcxIDIuOTE2NjYgMTkuMjI0NyAyLjkxNjY2IDE0Wk0yMy4wMDIzIDEyLjI2NjZDMjMuMDA0MiAxMi42NDk2IDIyLjY5MzYgMTIuOTYwOSAyMi4zMTA2IDEyLjk2MDlINS42ODkzOUM1LjMwNjM0IDEyLjk2MDkgNC45OTU3NyAxMi42NDk2IDQuOTk3NjggMTIuMjY2NkM1LjAwNjQyIDEwLjUxNTYgNS4wNDEyMiA5LjIyMjAxIDUuMTc5MTQgOC4xOTYxOEM1LjM1MTA1IDYuOTE3NTUgNS42NDgxNCA2LjM3MDMxIDYuMDA5MjMgNi4wMDkyM0M2LjM3MDMxIDUuNjQ4MTQgNi45MTc1NSA1LjM1MTA1IDguMTk2MTggNS4xNzkxNEM5LjUzNDU5IDQuOTk5MiAxMS4zMjg5IDQuOTk0NzggMTQgNC45OTQ3OEMxNi42NzExIDQuOTk0NzggMTguNDY1NCA0Ljk5OTIgMTkuODAzOCA1LjE3OTE0QzIxLjA4MjQgNS4zNTEwNSAyMS42Mjk3IDUuNjQ4MTQgMjEuOTkwNyA2LjAwOTIzQzIyLjM1MTggNi4zNzAzMSAyMi42NDg5IDYuOTE3NTUgMjIuODIwOCA4LjE5NjE4QzIyLjk1ODggOS4yMjIwMSAyMi45OTM2IDEwLjUxNTYgMjMuMDAyMyAxMi4yNjY2Wk0xNS4xMjQgMjQuNjU4N0wxNi45MTQyIDIwLjQ0MjlDMTYuOTcyNSAyMC4zMTE2IDE3LjA2NzcgMjAuMTUwNSAxNy4yMzIzIDIwLjA0OTZDMTcuMzgzMiAxOS45NTUxIDE3LjU1MTMgMTkuOTI2MyAxNy43MDMyIDE5LjkyNjNDMTcuODM4OCAxOS45MjYzIDE3Ljk4NCAxOS45NTEgMTguMTE5NCAyMC4wMjM3QzE4LjI1NTkgMjAuMDk2OSAxOC4zNTkyIDIwLjIwNjYgMTguNDI3NCAyMC4zMzgxQzE4LjU2OTkgMjAuNTk1MyAxOC41NTExIDIwLjg3MSAxOC40NDA4IDIxLjExM0wxNS45MjI3IDI2Ljg4OTJDMTUuODU4NCAyNy4wMzYxIDE1Ljc2MjEgMjcuMTcwNSAxNS42MjYyIDI3LjI3MjRMMTUuNjIxMiAyNy4yNzYxQzE1LjQ2OTYgMjcuMzg2NCAxNS4yOTYyIDI3LjQyNTYgMTUuMTMyNSAyNy40MjU2QzE0Ljk2NDYgMjcuNDI1NiAxNC43OTgxIDI3LjM4MDkgMTQuNjUxNyAyNy4yNzgxQzE0LjUwODYgMjcuMTc3NiAxNC40MTA4IDI3LjA0MDEgMTQuMzQ1IDI2Ljg5NTJMMTQuMzQyNCAyNi44ODk2TDExLjg0NDcgMjEuMTc4QzExLjc0MTggMjAuOTI4MiAxMS42OTIxIDIwLjYyOSAxMS44MzIxIDIwLjM0ODhDMTEuOTg2NiAyMC4wMzk5IDEyLjI4MzMgMTkuOTI2MyAxMi41NzAzIDE5LjkyNjNDMTIuNzMzIDE5LjkyNjMgMTIuOTAxNCAxOS45NjI4IDEzLjA1MjMgMjAuMDYwNEMxMy4yMDQ1IDIwLjE1ODYgMTMuMzA3MyAyMC4yOTg0IDEzLjM3MTQgMjAuNDUxMkwxMy4zNzE4IDIwLjQ1MjFMMTUuMTI0IDI0LjY1ODdaTTIxLjI4OTUgMjQuMjEwMVYyNi41NTc0QzIxLjI4OTUgMjYuNzkwNCAyMS4yMDUzIDI3LjAwNTEgMjEuMDM3MSAyNy4xNzMzQzIwLjg2ODkgMjcuMzQxNSAyMC42NTQzIDI3LjQyNTYgMjAuNDIxMiAyNy40MjU2QzIwLjE4ODIgMjcuNDI1NiAxOS45NzM1IDI3LjM0MTUgMTkuODA1MyAyNy4xNzMzQzE5LjYzNzEgMjcuMDA1MSAxOS41NTMgMjYuNzkwNCAxOS41NTMgMjYuNTU3NFYyMC43OTQ2QzE5LjU1MyAyMC41NjQxIDE5LjYzMiAyMC4zNDMgMTkuODEwNCAyMC4xNzM1QzE5Ljk3NzkgMjAuMDA4OCAyMC4xOTA1IDE5LjkyNjMgMjAuNDIxMiAxOS45MjYzQzIwLjc1NzcgMTkuOTI2MyAyMS4wMjI3IDIwLjA5OTcgMjEuMTgyMyAyMC4zNzkxTDIxLjE4ODIgMjAuMzg5NUwyMy4zMzQyIDI0LjY4ODNMMjUuNDI0NCAyMC4zOTE0TDI1LjQzMTQgMjAuMzc5MUMyNS41OTExIDIwLjA5OTcgMjUuODU2MSAxOS45MjYzIDI2LjE5MjUgMTkuOTI2M0MyNi40MjMyIDE5LjkyNjMgMjYuNjM1OSAyMC4wMDg4IDI2LjgwMzMgMjAuMTczNkMyNi45ODE4IDIwLjM0MyAyNy4wNjA4IDIwLjU2NDEgMjcuMDYwOCAyMC43OTQ2VjI2LjU1NzRDMjcuMDYwOCAyNi43OTcxIDI2Ljk2ODggMjcuMDEyOCAyNi43OTUxIDI3LjE3ODFDMjYuNjMxOCAyNy4zMzkgMjYuNDIzNiAyNy40MjU2IDI2LjE5MjUgMjcuNDI1NkMyNS45NTk1IDI3LjQyNTYgMjUuNzQ0OCAyNy4zNDE1IDI1LjU3NjYgMjcuMTczM0MyNS40MDg0IDI3LjAwNTEgMjUuMzI0MyAyNi43OTA0IDI1LjMyNDMgMjYuNTU3NFYyNC4xNTg1TDI0LjA2MDUgMjYuNzM0M0wyNC4wNDYyIDI2Ljc1NjJDMjMuODgxMiAyNy4wMDg1IDIzLjYyNzEgMjcuMTcwMiAyMy4zMDY5IDI3LjE3MDJDMjMuMTQ0MyAyNy4xNzAyIDIyLjk4MDQgMjcuMTMxMiAyMi44MzM0IDI3LjAzNjJDMjIuNjg4MyAyNi45NDI1IDIyLjU4NiAyNi44MTE1IDIyLjUxNjUgMjYuNjY4OEwyMS4yODk1IDI0LjIxMDFaIiBjbGlwLXJ1bGU9ImV2ZW5vZGQiIGZpbGwtcnVsZT0iZXZlbm9kZCIvPiYjeGE7PC9zdmc+;fontSize=24;fontFamily=VK Sans Display;fillColor=#F6F7F9;strokeColor=none;rounded=1;spacing=0;spacingTop=12;spacingBottom=12;arcSize=12;" vertex="1" parent="1">
          <mxGeometry x="1150" y="139.5" width="60" height="60" as="geometry" />
        </mxCell>
        <mxCell id="64xB1zlB2NgBOo_r7WIC-19" value="" style="shape=image;verticalLabelPosition=bottom;labelBackgroundColor=default;verticalAlign=middle;aspect=fixed;imageAspect=0;image=data:image/svg+xml,PHN2ZyB4bWxucz0iaHR0cDovL3d3dy53My5vcmcvMjAwMC9zdmciIGZpbGw9Im5vbmUiIHZpZXdCb3g9IjAgMCAyOCAyOCIgaGVpZ2h0PSIyOCIgd2lkdGg9IjI4Ij4mI3hhOzxwYXRoIGZpbGw9IiMwMDc3RkYiIGQ9Ik0yLjkxNjY2IDE0QzIuOTE2NjYgOC43NzUyNiAyLjkxNjY2IDYuMTYyODkgNC41Mzk3NyA0LjUzOTc3QzYuMTYyODkgMi45MTY2NiA4Ljc3NTI2IDIuOTE2NjYgMTQgMi45MTY2NkMxOS4yMjQ3IDIuOTE2NjYgMjEuODM3MSAyLjkxNjY2IDIzLjQ2MDIgNC41Mzk3N0MyNS4wODMzIDYuMTYyODkgMjUuMDgzMyA4Ljc3NTI2IDI1LjA4MzMgMTRDMjUuMDgzMyAxNS4xNjI2IDI1LjA2MDIgMTYuNDc3NiAyNS4wMzA4IDE3LjUzOThDMjUuMDE1OSAxOC4wNzU5IDI0LjU3NTYgMTguNSAyNC4wMzkzIDE4LjVDMjMuNDczMyAxOC41IDIzLjAxNDkgMTguMDI5MiAyMy4wMTIxIDE3LjQ2MzFDMjMuMDExMSAxNy4yNTUxIDIzLjAwOTIgMTcuMDM4NiAyMy4wMDczIDE2LjgyM0MyMy4wMDQgMTYuNDM5MiAyMy4wMDA3IDE2LjA1ODMgMjMuMDAyMyAxNS43MzM0QzIzLjAwNDIgMTUuMzUwMyAyMi42OTM2IDE1LjAzOTEgMjIuMzEwNiAxNS4wMzkxSDUuNjg5MzlDNS4zMDYzNCAxNS4wMzkxIDQuOTk1NzcgMTUuMzUwMyA0Ljk5NzY4IDE1LjczMzRDNS4wMDY0MiAxNy40ODQzIDUuMDQxMjIgMTguNzc4IDUuMTc5MTQgMTkuODAzOEM1LjM1MTA1IDIxLjA4MjQgNS42NDgxNCAyMS42Mjk3IDYuMDA5MjMgMjEuOTkwN0M2LjM3MDMxIDIyLjM1MTggNi45MTc1NSAyMi42NDg5IDguMTk2MTggMjIuODIwOEM4LjQ0NzY1IDIyLjg1NDYgOC43MTUyMSAyMi44ODIzIDkuMDAxNjUgMjIuOTA0OEM5LjU1ODQxIDIyLjk0ODYgMTAgMjMuNDAzMSAxMCAyMy45NjE2QzEwIDI0LjU1MTEgOS41MDk0IDI1LjAyNjQgOC45MjE1IDI0Ljk4MjZDNi44NjE1MyAyNC44Mjg4IDUuNTIwMTggMjQuNDQwNiA0LjUzOTc3IDIzLjQ2MDJDMi45MTY2NiAyMS44MzcxIDIuOTE2NjYgMTkuMjI0NyAyLjkxNjY2IDE0Wk0yMy4wMDIzIDEyLjI2NjZDMjMuMDA0MiAxMi42NDk2IDIyLjY5MzYgMTIuOTYwOSAyMi4zMTA2IDEyLjk2MDlINS42ODkzOUM1LjMwNjM0IDEyLjk2MDkgNC45OTU3NyAxMi42NDk2IDQuOTk3NjggMTIuMjY2NkM1LjAwNjQyIDEwLjUxNTYgNS4wNDEyMiA5LjIyMjAxIDUuMTc5MTQgOC4xOTYxOEM1LjM1MTA1IDYuOTE3NTUgNS42NDgxNCA2LjM3MDMxIDYuMDA5MjMgNi4wMDkyM0M2LjM3MDMxIDUuNjQ4MTQgNi45MTc1NSA1LjM1MTA1IDguMTk2MTggNS4xNzkxNEM5LjUzNDU5IDQuOTk5MiAxMS4zMjg5IDQuOTk0NzggMTQgNC45OTQ3OEMxNi42NzExIDQuOTk0NzggMTguNDY1NCA0Ljk5OTIgMTkuODAzOCA1LjE3OTE0QzIxLjA4MjQgNS4zNTEwNSAyMS42Mjk3IDUuNjQ4MTQgMjEuOTkwNyA2LjAwOTIzQzIyLjM1MTggNi4zNzAzMSAyMi42NDg5IDYuOTE3NTUgMjIuODIwOCA4LjE5NjE4QzIyLjk1ODggOS4yMjIwMSAyMi45OTM2IDEwLjUxNTYgMjMuMDAyMyAxMi4yNjY2Wk0xNS4xMjQgMjQuNjU4N0wxNi45MTQyIDIwLjQ0MjlDMTYuOTcyNSAyMC4zMTE2IDE3LjA2NzcgMjAuMTUwNSAxNy4yMzIzIDIwLjA0OTZDMTcuMzgzMiAxOS45NTUxIDE3LjU1MTMgMTkuOTI2MyAxNy43MDMyIDE5LjkyNjNDMTcuODM4OCAxOS45MjYzIDE3Ljk4NCAxOS45NTEgMTguMTE5NCAyMC4wMjM3QzE4LjI1NTkgMjAuMDk2OSAxOC4zNTkyIDIwLjIwNjYgMTguNDI3NCAyMC4zMzgxQzE4LjU2OTkgMjAuNTk1MyAxOC41NTExIDIwLjg3MSAxOC40NDA4IDIxLjExM0wxNS45MjI3IDI2Ljg4OTJDMTUuODU4NCAyNy4wMzYxIDE1Ljc2MjEgMjcuMTcwNSAxNS42MjYyIDI3LjI3MjRMMTUuNjIxMiAyNy4yNzYxQzE1LjQ2OTYgMjcuMzg2NCAxNS4yOTYyIDI3LjQyNTYgMTUuMTMyNSAyNy40MjU2QzE0Ljk2NDYgMjcuNDI1NiAxNC43OTgxIDI3LjM4MDkgMTQuNjUxNyAyNy4yNzgxQzE0LjUwODYgMjcuMTc3NiAxNC40MTA4IDI3LjA0MDEgMTQuMzQ1IDI2Ljg5NTJMMTQuMzQyNCAyNi44ODk2TDExLjg0NDcgMjEuMTc4QzExLjc0MTggMjAuOTI4MiAxMS42OTIxIDIwLjYyOSAxMS44MzIxIDIwLjM0ODhDMTEuOTg2NiAyMC4wMzk5IDEyLjI4MzMgMTkuOTI2MyAxMi41NzAzIDE5LjkyNjNDMTIuNzMzIDE5LjkyNjMgMTIuOTAxNCAxOS45NjI4IDEzLjA1MjMgMjAuMDYwNEMxMy4yMDQ1IDIwLjE1ODYgMTMuMzA3MyAyMC4yOTg0IDEzLjM3MTQgMjAuNDUxMkwxMy4zNzE4IDIwLjQ1MjFMMTUuMTI0IDI0LjY1ODdaTTIxLjI4OTUgMjQuMjEwMVYyNi41NTc0QzIxLjI4OTUgMjYuNzkwNCAyMS4yMDUzIDI3LjAwNTEgMjEuMDM3MSAyNy4xNzMzQzIwLjg2ODkgMjcuMzQxNSAyMC42NTQzIDI3LjQyNTYgMjAuNDIxMiAyNy40MjU2QzIwLjE4ODIgMjcuNDI1NiAxOS45NzM1IDI3LjM0MTUgMTkuODA1MyAyNy4xNzMzQzE5LjYzNzEgMjcuMDA1MSAxOS41NTMgMjYuNzkwNCAxOS41NTMgMjYuNTU3NFYyMC43OTQ2QzE5LjU1MyAyMC41NjQxIDE5LjYzMiAyMC4zNDMgMTkuODEwNCAyMC4xNzM1QzE5Ljk3NzkgMjAuMDA4OCAyMC4xOTA1IDE5LjkyNjMgMjAuNDIxMiAxOS45MjYzQzIwLjc1NzcgMTkuOTI2MyAyMS4wMjI3IDIwLjA5OTcgMjEuMTgyMyAyMC4zNzkxTDIxLjE4ODIgMjAuMzg5NUwyMy4zMzQyIDI0LjY4ODNMMjUuNDI0NCAyMC4zOTE0TDI1LjQzMTQgMjAuMzc5MUMyNS41OTExIDIwLjA5OTcgMjUuODU2MSAxOS45MjYzIDI2LjE5MjUgMTkuOTI2M0MyNi40MjMyIDE5LjkyNjMgMjYuNjM1OSAyMC4wMDg4IDI2LjgwMzMgMjAuMTczNkMyNi45ODE4IDIwLjM0MyAyNy4wNjA4IDIwLjU2NDEgMjcuMDYwOCAyMC43OTQ2VjI2LjU1NzRDMjcuMDYwOCAyNi43OTcxIDI2Ljk2ODggMjcuMDEyOCAyNi43OTUxIDI3LjE3ODFDMjYuNjMxOCAyNy4zMzkgMjYuNDIzNiAyNy40MjU2IDI2LjE5MjUgMjcuNDI1NkMyNS45NTk1IDI3LjQyNTYgMjUuNzQ0OCAyNy4zNDE1IDI1LjU3NjYgMjcuMTczM0MyNS40MDg0IDI3LjAwNTEgMjUuMzI0MyAyNi43OTA0IDI1LjMyNDMgMjYuNTU3NFYyNC4xNTg1TDI0LjA2MDUgMjYuNzM0M0wyNC4wNDYyIDI2Ljc1NjJDMjMuODgxMiAyNy4wMDg1IDIzLjYyNzEgMjcuMTcwMiAyMy4zMDY5IDI3LjE3MDJDMjMuMTQ0MyAyNy4xNzAyIDIyLjk4MDQgMjcuMTMxMiAyMi44MzM0IDI3LjAzNjJDMjIuNjg4MyAyNi45NDI1IDIyLjU4NiAyNi44MTE1IDIyLjUxNjUgMjYuNjY4OEwyMS4yODk1IDI0LjIxMDFaIiBjbGlwLXJ1bGU9ImV2ZW5vZGQiIGZpbGwtcnVsZT0iZXZlbm9kZCIvPiYjeGE7PC9zdmc+;fontSize=24;fontFamily=VK Sans Display;fillColor=#F6F7F9;strokeColor=none;rounded=1;spacing=0;spacingTop=12;spacingBottom=12;arcSize=12;" vertex="1" parent="1">
          <mxGeometry x="1280" y="139.5" width="60" height="60" as="geometry" />
        </mxCell>
        <mxCell id="64xB1zlB2NgBOo_r7WIC-20" value="" style="shape=image;verticalLabelPosition=bottom;labelBackgroundColor=default;verticalAlign=middle;aspect=fixed;imageAspect=0;image=data:image/svg+xml,PHN2ZyB4bWxucz0iaHR0cDovL3d3dy53My5vcmcvMjAwMC9zdmciIGZpbGw9Im5vbmUiIHZpZXdCb3g9IjAgMCAyMiAyMSIgaGVpZ2h0PSIyMSIgd2lkdGg9IjIyIj4mI3hhOzxwYXRoIGZpbGw9IiMwMDc3RkYiIGQ9Ik02LjQgMTZINy42MzQ5Mkw3LjI1Mzk3IDE5SDRDMy40NDc3MiAxOSAzIDE5LjQ0NzcgMyAyMEMzIDIwLjU1MjMgMy40NDc3MiAyMSA0IDIxSDE4QzE4LjU1MjMgMjEgMTkgMjAuNTUyMyAxOSAyMEMxOSAxOS40NDc3IDE4LjU1MjMgMTkgMTggMTlIMTQuNzQ2TDE0LjM2NTEgMTZIMTUuNkMxNy44NDAyIDE2IDE4Ljk2MDMgMTYgMTkuODE2IDE1LjU2NEMyMC41Njg2IDE1LjE4MDUgMjEuMTgwNSAxNC41Njg2IDIxLjU2NCAxMy44MTZDMjIgMTIuOTYwMyAyMiAxMS44NDAyIDIyIDkuNlY2LjRDMjIgNC4xNTk3OSAyMiAzLjAzOTY5IDIxLjU2NCAyLjE4NDA0QzIxLjE4MDUgMS40MzEzOSAyMC41Njg2IDAuODE5NDY4IDE5LjgxNiAwLjQzNTk3NUMxOC45NjAzIDAgMTcuODQwMiAwIDE1LjYgMEg2LjRDNC4xNTk3OSAwIDMuMDM5NjggMCAyLjE4NDA0IDAuNDM1OTc0QzEuNDMxMzkgMC44MTk0NjcgMC44MTk0NjcgMS40MzEzOSAwLjQzNTk3NCAyLjE4NDA0QzAgMy4wMzk2OSAwIDQuMTU5NzkgMCA2LjRWOS42QzAgMTEuODQwMiAwIDEyLjk2MDMgMC40MzU5NzQgMTMuODE2QzAuODE5NDY3IDE0LjU2ODYgMS40MzEzOSAxNS4xODA1IDIuMTg0MDQgMTUuNTY0QzMuMDM5NjggMTYgNC4xNTk3OSAxNiA2LjQgMTZaTTIwIDkuNlY2LjRDMjAgNS4yNDY4OSAxOS45OTg0IDQuNTAyMzUgMTkuOTUyMSAzLjkzNTY3QzE5LjkwNzggMy4zOTIzNSAxOS44MzI0IDMuMTkwOTEgMTkuNzgyIDMuMDkyMDJDMTkuNTkwMyAyLjcxNTcgMTkuMjg0MyAyLjQwOTczIDE4LjkwOCAyLjIxNzk5QzE4LjgwOTEgMi4xNjc2IDE4LjYwNzcgMi4wOTIyNSAxOC4wNjQzIDIuMDQ3ODZDMTcuNDk3NyAyLjAwMTU2IDE2Ljc1MzEgMiAxNS42IDJMNi40IDJDNS4yNDY4OSAyIDQuNTAyMzUgMi4wMDE1NiAzLjkzNTY3IDIuMDQ3ODVDMy4zOTIzNSAyLjA5MjI1IDMuMTkwOTEgMi4xNjc2IDMuMDkyMDIgMi4yMTc5OUMyLjcxNTY5IDIuNDA5NzMgMi40MDk3MyAyLjcxNTY5IDIuMjE3OTkgMy4wOTIwMkMyLjE2NzYgMy4xOTA5MSAyLjA5MjI1IDMuMzkyMzUgMi4wNDc4NiAzLjkzNTY3QzIuMDAxNTUgNC41MDIzNSAyIDUuMjQ2ODkgMiA2LjRMMiA5LjZDMiAxMC43NTMxIDIuMDAxNTUgMTEuNDk3NyAyLjA0Nzg1IDEyLjA2NDNDMi4wOTIyNSAxMi42MDc3IDIuMTY3NiAxMi44MDkxIDIuMjE3OTkgMTIuOTA4QzIuNDA5NzMgMTMuMjg0MyAyLjcxNTY5IDEzLjU5MDMgMy4wOTIwMiAxMy43ODJDMy4xOTA5MSAxMy44MzI0IDMuMzkyMzQgMTMuOTA3OCAzLjkzNTY3IDEzLjk1MjFDNC41MDIzNSAxMy45OTg0IDUuMjQ2ODkgMTQgNi40IDE0TDE1LjYgMTRDMTYuNzUzMSAxNCAxNy40OTc3IDEzLjk5ODQgMTguMDY0MyAxMy45NTIxQzE4LjYwNzcgMTMuOTA3OCAxOC44MDkxIDEzLjgzMjQgMTguOTA4IDEzLjc4MkMxOS4yODQzIDEzLjU5MDMgMTkuNTkwMyAxMy4yODQzIDE5Ljc4MiAxMi45MDhDMTkuODMyNCAxMi44MDkxIDE5LjkwNzggMTIuNjA3NyAxOS45NTIxIDEyLjA2NDNDMTkuOTk4NCAxMS40OTc3IDIwIDEwLjc1MzEgMjAgOS42Wk0xMi43MyAxOUwxMi4zNDkgMTZIOS42NTA5OEw5LjI3MDAzIDE5SDEyLjczWiIgY2xpcC1ydWxlPSJldmVub2RkIiBmaWxsLXJ1bGU9ImV2ZW5vZGQiLz4mI3hhOzwvc3ZnPg==;fontSize=24;fontFamily=VK Sans Display;fillColor=#F6F7F9;strokeColor=none;rounded=1;spacing=0;spacingTop=12;spacingBottom=12;arcSize=12;" vertex="1" parent="1">
          <mxGeometry x="1930" y="378.5" width="62.9" height="60" as="geometry" />
        </mxCell>
        <mxCell id="64xB1zlB2NgBOo_r7WIC-21" value="Кибер Бэкап Облачный" style="shape=image;verticalLabelPosition=bottom;labelBackgroundColor=default;verticalAlign=middle;aspect=fixed;imageAspect=0;image=data:image/svg+xml,PHN2ZyB4bWxucz0iaHR0cDovL3d3dy53My5vcmcvMjAwMC9zdmciIGZpbGw9Im5vbmUiIHZpZXdCb3g9IjAgMCAyMCAyNiIgaGVpZ2h0PSIyNiIgd2lkdGg9IjIwIj4mI3hhOzxwYXRoIGZpbGw9IiMwMDc3RkYiIGQ9Ik0wLjk2OTEzOSAzLjUxODM3QzAuMzMzMzQ0IDQuNzY2MTkgMC4zMzMzNDQgNy4zOTk2NyAwLjMzMzM0NCAxMC42NjY2VjE1LjMzMzNDMC4zMzMzNDQgMTguNjAwMyAwLjMzMzM0NCAyMS4yMzM4IDAuOTY5MTM5IDIyLjQ4MTZDMS41Mjg0IDIzLjU3OTIgMi40MjA3OSAyNC40NzE2IDMuNTE4NCAyNS4wMzA4QzMuNjQ0MjIgMjUuMDk1IDMuNzUzNjMgMjUuMTUyNiAzLjg1MiAyNS4yMDQ0TDMuODUyMTEgMjUuMjA0NUwzLjg1MjEzIDI1LjIwNDVDNC4wODI3NSAyNS4zMjYgNC4yNTI3MyAyNS40MTU2IDQuNDMxNDIgMjUuNDgxNkM0LjkzMjMyIDI1LjY2NjYgNS41MDE2IDI1LjY2NjYgNy42NjY2OCAyNS42NjY2SDEyLjMzMzNDMTQuNDk4NCAyNS42NjY2IDE1LjA2NzcgMjUuNjY2NiAxNS41Njg2IDI1LjQ4MTZDMTUuNzQ3MyAyNS40MTU2IDE1LjkxNzMgMjUuMzI2IDE2LjE0NzkgMjUuMjA0NUwxNi4xNDggMjUuMjA0NEMxNi4yNDY0IDI1LjE1MjYgMTYuMzU1OCAyNS4wOTUgMTYuNDgxNiAyNS4wMzA4QzE3LjU3OTIgMjQuNDcxNiAxOC40NzE2IDIzLjU3OTIgMTkuMDMwOSAyMi40ODE2QzE5LjY2NjcgMjEuMjMzOCAxOS42NjY3IDE4LjYwMDMgMTkuNjY2NyAxNS4zMzMzVjEwLjY2NjZDMTkuNjY2NyA3LjM5OTY3IDE5LjY2NjcgNC43NjYxOSAxOS4wMzA5IDMuNTE4MzdDMTguNDcxNiAyLjQyMDc2IDE3LjU3OTIgMS41MjgzNyAxNi40ODE2IDAuOTY5MTA4QzE2LjM1NTggMC45MDQ5OSAxNi4yNDY0IDAuODQ3MzM4IDE2LjE0OCAwLjc5NTVMMTYuMTQ3OSAwLjc5NTQ2M0MxNS45MTczIDAuNjczOTQ4IDE1Ljc0NzMgMC41ODQzODQgMTUuNTY4NiAwLjUxODM2OUMxNS4wNjc3IDAuMzMzMzEzIDE0LjQ5ODQgMC4zMzMzMTMgMTIuMzMzMyAwLjMzMzMxM0g3LjY2NjY4QzUuNTAxNiAwLjMzMzMxMyA0LjkzMjMyIDAuMzMzMzEzIDQuNDMxNDIgMC41MTgzNjlDNC4yNTI3MyAwLjU4NDM4NCA0LjA4Mjc0IDAuNjczOTQ4IDMuODUyMTEgMC43OTU0NjNDMy43NTM3MSAwLjg0NzMxMSAzLjY0NDI3IDAuOTA0OTc1IDMuNTE4NCAwLjk2OTEwOEMyLjQyMDc5IDEuNTI4MzcgMS41Mjg0IDIuNDIwNzYgMC45NjkxMzkgMy41MTgzN1pNMTIuMzMzMyAyLjUyMDgxSDcuNjY2NjhDNi41NzcxMSAyLjUyMDgxIDYuNTczMSAyLjUyMTU0IDYuNDYxOTcgMi41NDE2NEM2LjQwMjgxIDIuNTUyMzQgNi4zMTMyOSAyLjU2ODUzIDYuMDEzNDkgMi41OTMwMkM1LjE3NjA0IDIuNjYxNDQgNC43NzU2NCAyLjc4MzYgNC41MTE1IDIuOTE4MThDMy44MjU1IDMuMjY3NzIgMy4yNjc3NSAzLjgyNTQ2IDIuOTE4MjIgNC41MTE0N0MyLjc4MzYzIDQuNzc1NjEgMi42NjE0NyA1LjE3NjAxIDIuNTkzMDUgNi4wMTM0NkMyLjUyMjU0IDYuODc2NDQgMi41MjA4NCA4Ljk5NzA2IDIuNTIwODQgMTAuNjY2NlYxNS4zMzMzQzIuNTIwODQgMTcuMDAyOSAyLjUyMjU0IDE5LjEyMzUgMi41OTMwNSAxOS45ODY1QzIuNjYxNDcgMjAuODIzOSAyLjc4MzYzIDIxLjIyNDMgMi45MTgyMiAyMS40ODg1QzMuMjY3NzUgMjIuMTc0NSAzLjgyNTUgMjIuNzMyMiA0LjUxMTUgMjMuMDgxOEM0Ljc3NTY0IDIzLjIxNjQgNS4xNzYwNCAyMy4zMzg1IDYuMDEzNDkgMjMuNDA2OUM2LjMxMzI4IDIzLjQzMTQgNi40MDI4IDIzLjQ0NzYgNi40NjE5NyAyMy40NTgzQzYuNTczMSAyMy40Nzg0IDYuNTc3MTEgMjMuNDc5MSA3LjY2NjY4IDIzLjQ3OTFIMTIuMzMzM0MxMy40MjI5IDIzLjQ3OTEgMTMuNDI2OSAyMy40Nzg0IDEzLjUzODEgMjMuNDU4M0MxMy41OTcyIDIzLjQ0NzYgMTMuNjg2NyAyMy40MzE0IDEzLjk4NjUgMjMuNDA2OUMxNC44MjQgMjMuMzM4NSAxNS4yMjQ0IDIzLjIxNjQgMTUuNDg4NSAyMy4wODE4QzE2LjE3NDUgMjIuNzMyMiAxNi43MzIzIDIyLjE3NDUgMTcuMDgxOCAyMS40ODg1QzE3LjIxNjQgMjEuMjI0MyAxNy4zMzg1IDIwLjgyMzkgMTcuNDA3IDE5Ljk4NjVDMTcuNDc3NSAxOS4xMjM1IDE3LjQ3OTIgMTcuMDAyOSAxNy40NzkyIDE1LjMzMzNWMTAuNjY2NkMxNy40NzkyIDguOTk3MDYgMTcuNDc3NSA2Ljg3NjQ0IDE3LjQwNyA2LjAxMzQ2QzE3LjMzODUgNS4xNzYwMSAxNy4yMTY0IDQuNzc1NjEgMTcuMDgxOCA0LjUxMTQ3QzE2LjczMjMgMy44MjU0NiAxNi4xNzQ1IDMuMjY3NzIgMTUuNDg4NSAyLjkxODE4QzE1LjIyNDQgMi43ODM2IDE0LjgyNCAyLjY2MTQ0IDEzLjk4NjUgMi41OTMwMkMxMy42ODY3IDIuNTY4NTMgMTMuNTk3MiAyLjU1MjM0IDEzLjUzODEgMi41NDE2NEMxMy40MjY5IDIuNTIxNTQgMTMuNDIyOSAyLjUyMDgxIDEyLjMzMzMgMi41MjA4MVpNNSA0LjVDNC40NDc3MiA0LjUgNCA0Ljk0NzcyIDQgNS41QzQgNi4wNTIyOCA0LjQ0NzcyIDYuNSA1IDYuNUgxNUMxNS41NTIzIDYuNSAxNiA2LjA1MjI4IDE2IDUuNUMxNiA0Ljk0NzcyIDE1LjU1MjMgNC41IDE1IDQuNUg1Wk00IDE2LjVDNCAxNS45NDc3IDQuNDQ3NzIgMTUuNSA1IDE1LjVIMTVDMTUuNTUyMyAxNS41IDE2IDE1Ljk0NzcgMTYgMTYuNUMxNiAxNy4wNTIzIDE1LjU1MjMgMTcuNSAxNSAxNy41SDVDNC40NDc3MiAxNy41IDQgMTcuMDUyMyA0IDE2LjVaTTUgMTkuNUM0LjQ0NzcyIDE5LjUgNCAxOS45NDc3IDQgMjAuNUM0IDIxLjA1MjMgNC40NDc3MiAyMS41IDUgMjEuNUgxNUMxNS41NTIzIDIxLjUgMTYgMjEuMDUyMyAxNiAyMC41QzE2IDE5Ljk0NzcgMTUuNTUyMyAxOS41IDE1IDE5LjVINVoiIGNsaXAtcnVsZT0iZXZlbm9kZCIgZmlsbC1ydWxlPSJldmVub2RkIi8+JiN4YTs8L3N2Zz4=;fontSize=24;fontFamily=VK Sans Display;fillColor=#F6F7F9;strokeColor=none;rounded=1;spacing=0;spacingTop=12;spacingBottom=12;arcSize=12;" vertex="1" parent="1">
          <mxGeometry x="1566.93" y="624.5" width="46.15" height="60" as="geometry" />
        </mxCell>
      </root>
    </mxGraphModel>
  </diagram>
</mxfile>
